<svg xmlns="http://www.w3.org/2000/svg" style="display:none"><symbol id="bell" viewbox="0 0 28 30"><title>bell</title><g id="Page-1" fill="currentColor" fill-rule="evenodd"><path d="M13.94 27.482c0 .145-.113.259-.26.259a2.856 2.856 0 0 1-2.851-2.852c0-.146.113-.26.26-.26.145 0 .258.114.258.26a2.344 2.344 0 0 0 2.334 2.333c.146 0 .26.114.26.26zm13.222-4.667c-2.398-2.026-5.185-5.655-5.185-13.482 0-3.11-2.576-6.514-6.87-7.145a1.63 1.63 0 0 0 .13-.632 1.556 1.556 0 0 0-3.112 0c0 .226.049.437.13.632-4.294.631-6.87 4.034-6.87 7.145 0 7.827-2.788 11.456-5.186 13.482 0 1.134.94 2.074 2.074 2.074h7.26a4.156 4.156 0 0 0 4.148 4.148 4.156 4.156 0 0 0 4.148-4.148h7.26c1.134 0 2.073-.94 2.073-2.074z" id="bell" fill="currentColor"/></g></symbol><symbol id="calendar" viewbox="0 0 28 26"><title>calendar</title><g id="Page-1" fill="currentColor" fill-rule="evenodd"><path d="M19.166 23.998H26V19.47h-6.834v4.528zm-17.165 0h6.832V19.47H2v4.528zm0-11.43h6.832v-4.57H2v4.57zm17.165 0H26v-4.57h-6.834v4.57zm0 5.902H26v-4.901h-6.834v4.9zm-9.333-5.902h8.335v-4.57H9.833v4.57zM2.001 18.47h6.832v-4.901H2v4.9zm7.832 5.528h8.335V19.47H9.833v4.528zm-.001-5.528h8.335v-4.901H9.832v4.9zM0 25.998h28V0H0v25.998z" id="calendar" fill="currentColor"/></g></symbol><symbol id="check-primary" viewbox="0 0 28 21"><title>check-primary</title><g id="Page-1" fill="currentColor" fill-rule="evenodd"><path id="check-primary" fill="#34A1DB" d="M24.434 0L10.926 13.508l-7.36-7.36L0 9.714 10.926 20.64 28 3.566z"/></g></symbol><symbol id="check" viewbox="0 0 29 21"><title>check</title><g id="Page-1" fill="currentColor" fill-rule="evenodd"><path id="check" fill="currentColor" d="M24.566 0L11.058 13.508l-7.36-7.36L.132 9.714 11.058 20.64 28.134 3.566z"/></g></symbol><symbol id="chevron-down" viewbox="0 0 28 16"><title>chevron-down</title><g id="Page-1" fill="currentColor" fill-rule="evenodd"><path id="chevron-down" fill="currentColor" d="M26.153 0L14 12.153 1.85 0 0 1.848l14 14 14-14z"/></g></symbol><symbol id="close" viewbox="0 0 28 28"><title>close</title><g id="Page-1" fill="currentColor" fill-rule="evenodd"><path id="close" fill="currentColor" d="M17.3 14l9.9-9.9L23.9.8 14 10.7 4.1.8.8 4.1l9.9 9.9-9.9 9.9 3.3 3.3 9.9-9.9 9.9 9.9 3.3-3.3z"/></g></symbol><symbol id="edit" viewbox="0 0 28 29"><title>edit</title><g id="Page-1" fill="currentColor" fill-rule="evenodd"><path d="M27.617 2.594L25.414.38a1.297 1.297 0 0 0-1.833 0l-1.913 1.91a.585.585 0 0 0 0 .816l3.234 3.23c.22.226.591.226.813 0l1.902-1.908c.51-.508.51-1.326 0-1.833zm-18.02 12.59l3.234 3.231c.22.224.591.224.813-.154L24.212 7.687c.22-.068.22-.434 0-.66l-3.237-3.232a.574.574 0 0 0-.81 0L9.597 14.367a.585.585 0 0 0 0 .817zm-1.223.77l-.08.124-.03.085-1.573 4.587-.03.085c-.03.14.01.293.11.403a.45.45 0 0 0 .412.116l.08-.03 4.588-1.57.079-.032.131-.086a.447.447 0 0 0 0-.61l-3.076-3.072a.433.433 0 0 0-.611 0zm14.796-2.819v11.988H2.895V4.843h11.99l.08-.007V1.947H0v26.074h26.074V13.052H23.18l-.01.083z" id="edit" fill="currentColor"/></g></symbol><symbol id="facebook" viewbox="0 0 15 28"><title>facebook</title><g id="Page-1" fill="currentColor" fill-rule="evenodd"><path d="M14.538.202C14.084.135 12.52 0 10.702 0 6.899 0 4.29 2.322 4.29 6.58v3.668H0v4.98h4.29V28h5.15V15.228h4.274l.656-4.98H9.44v-3.18c0-1.431.387-2.424 2.457-2.424h2.641V.202z" id="facebook" fill="currentColor"/></g></symbol><symbol id="gear" viewbox="0 0 28 28"><title>gear</title><g id="Page-1" fill="currentColor" fill-rule="evenodd"><path d="M14.687 22.373c-5.185.408-9.46-3.878-9.062-9.054.322-4.07 3.623-7.37 7.688-7.692 5.183-.41 9.47 3.878 9.06 9.055-.322 4.072-3.621 7.37-7.686 7.691m12.416-5.888c.476-.232.797-.692.842-1.216.033-.417.055-.841.055-1.269 0-.429-.022-.852-.055-1.27a1.497 1.497 0 0 0-.842-1.215l-2.792-1.37a8.223 8.223 0 0 0-.298-.707l1.008-2.945a1.52 1.52 0 0 0-.255-1.447 13.997 13.997 0 0 0-1.806-1.809 1.514 1.514 0 0 0-1.45-.259l-2.947 1.006a10.359 10.359 0 0 0-.71-.292L16.493.898a1.522 1.522 0 0 0-1.22-.842 14.2 14.2 0 0 0-2.536 0c-.531.048-.985.37-1.218.842l-1.375 2.794c-.242.09-.475.187-.707.292L6.49 2.978a1.493 1.493 0 0 0-1.44.26 14.745 14.745 0 0 0-1.817 1.808c-.333.401-.422.953-.255 1.447l1.008 2.945c-.11.23-.199.466-.3.705l-2.79 1.372a1.545 1.545 0 0 0-.842 1.215C.022 13.148 0 13.57 0 14c0 .428.022.852.055 1.27.056.523.377.983.842 1.214l2.79 1.372c.101.239.19.475.3.706L2.98 21.507a1.508 1.508 0 0 0 .255 1.447 14.823 14.823 0 0 0 1.817 1.808c.398.335.952.428 1.44.26l2.946-1.006c.232.105.465.203.707.292l1.375 2.794c.233.472.687.794 1.206.842a14.435 14.435 0 0 0 2.548 0 1.52 1.52 0 0 0 1.22-.843l1.36-2.793c.245-.09.478-.187.71-.292l2.946 1.006a1.514 1.514 0 0 0 1.451-.26 14.735 14.735 0 0 0 1.806-1.808c.331-.401.42-.953.255-1.447l-1.008-2.945c.11-.231.209-.466.298-.705l2.792-1.372" id="gear" fill="currentColor"/></g></symbol><symbol id="heart" viewbox="0 0 28 23"><title>heart</title><g id="Page-1" fill="currentColor" fill-rule="evenodd"><path d="M14.223 22.519l.155.058s12.78-5.144 13.59-14.232c.384-4.298-2.791-8.2-7.1-8.339-3.059-.098-5.37.932-6.934 3.196C12.3.986 9.959.025 6.906.215 2.601.483-.454 4.479.056 8.763c1.086 9.061 14.013 13.82 14.013 13.82l.154-.064" id="heart" fill="currentColor"/></g></symbol><symbol id="instagram" viewbox="0 0 28 28"><title>instagram</title><g id="Page-1" fill="currentColor" fill-rule="evenodd"><path d="M18.666 14A4.675 4.675 0 0 1 14 18.666 4.675 4.675 0 0 1 9.334 14 4.675 4.675 0 0 1 14 9.334 4.675 4.675 0 0 1 18.666 14zm2.516 0A7.172 7.172 0 0 0 14 6.818 7.172 7.172 0 0 0 6.818 14 7.172 7.172 0 0 0 14 21.182 7.172 7.172 0 0 0 21.182 14zm1.968-7.473c0-.93-.747-1.677-1.677-1.677s-1.677.747-1.677 1.677.748 1.677 1.677 1.677c.93 0 1.677-.748 1.677-1.677zM14 2.517c2.042 0 6.416-.164 8.257.565a4.476 4.476 0 0 1 1.604 1.057c.492.492.802.966 1.057 1.604.73 1.84.565 6.215.565 8.257s.164 6.416-.565 8.257a4.476 4.476 0 0 1-1.057 1.604 4.476 4.476 0 0 1-1.604 1.057c-1.84.73-6.215.565-8.257.565s-6.416.164-8.257-.565a4.476 4.476 0 0 1-1.604-1.057 4.476 4.476 0 0 1-1.057-1.604c-.73-1.84-.565-6.215-.565-8.257s-.164-6.416.565-8.257a4.476 4.476 0 0 1 1.057-1.604 4.476 4.476 0 0 1 1.604-1.057c1.84-.73 6.215-.565 8.257-.565zM27.999 14c0-1.932.018-3.846-.091-5.778-.11-2.242-.62-4.229-2.26-5.87-1.641-1.64-3.628-2.15-5.87-2.26-1.932-.11-3.846-.09-5.778-.09-1.932 0-3.846-.02-5.778.09-2.242.11-4.229.62-5.87 2.26C.713 3.994.203 5.98.093 8.223c-.11 1.932-.09 3.846-.09 5.778 0 1.932-.02 3.846.09 5.778.11 2.242.62 4.229 2.26 5.87 1.641 1.64 3.628 2.15 5.87 2.26 1.932.11 3.846.09 5.778.09 1.932 0 3.846.02 5.778-.09 2.242-.11 4.229-.62 5.87-2.26 1.64-1.641 2.15-3.628 2.26-5.87.11-1.932.09-3.846.09-5.778z" id="instagram" fill="currentColor"/></g></symbol><symbol id="linkedin" viewbox="0 0 28 27"><title>linkedin</title><g id="Page-1" fill="currentColor" fill-rule="evenodd"><path d="M6.362 8.695H.346V26.76h6.016V8.695zm.383-5.578C6.727 1.35 5.45 0 3.39 0 1.349 0 0 1.349 0 3.117 0 4.85 1.294 6.234 3.318 6.234h.036c2.097 0 3.409-1.385 3.39-3.117zM28 16.407c0-5.542-2.953-8.131-6.909-8.131-3.245 0-4.667 1.805-5.45 3.044h.036V8.695H9.68s.073 1.696 0 18.065h5.997V16.68c0-.547.055-1.076.2-1.477.438-1.075 1.422-2.187 3.081-2.187 2.17 0 3.045 1.658 3.045 4.083v9.661H28V16.406z" id="linkedin" fill="currentColor"/></g></symbol><symbol id="messages" viewbox="0 0 28 20"><title>messages</title><g id="Page-1" fill="currentColor" fill-rule="evenodd"><path d="M25.085 0H11.359a2.92 2.92 0 0 0-2.92 2.919v6.547a2.92 2.92 0 0 0 2.92 2.918h7.887l2.92 2.92 2.919-2.92A2.916 2.916 0 0 0 28 9.466V2.919A2.916 2.916 0 0 0 25.085 0zm-10.34 14.278h-3.386a4.812 4.812 0 0 1-4.812-4.812V5.552a1.22 1.22 0 0 0-1.22-1.22H2.92A2.92 2.92 0 0 0 0 7.25v6.547a2.92 2.92 0 0 0 2.919 2.919l2.918 2.918 2.918-2.918h6.035l.044-.001c1.567-.023 1.478-2.438-.09-2.438z" id="messages" fill="currentColor"/></g></symbol><symbol id="petcreds" viewbox="0 0 28 25"><title>petcreds</title><g id="Page-1" fill="currentColor" fill-rule="evenodd"><path d="M27.732 21.087a1.258 1.258 0 0 0-1.766-.211c-1.638 1.292-4.201 1.565-6.086.65-.898-.437-1.97-1.318-1.97-3.038v-.797c1.857-.413 3.212-1.7 3.212-3.226 0-1.858-2.005-3.364-4.483-3.364-2.482 0-4.491 1.506-4.491 3.364 0 1.536 1.374 2.83 3.25 3.233v.79c0 1.72-1.07 2.601-1.969 3.038-1.883.915-4.443.642-6.087-.65A1.256 1.256 0 1 0 5.79 22.85c1.444 1.134 3.32 1.725 5.183 1.725 1.234 0 2.462-.26 3.555-.79a6.152 6.152 0 0 0 2.126-1.663 6.22 6.22 0 0 0 2.132 1.663c1.095.531 2.323.79 3.551.79 1.865 0 3.743-.591 5.183-1.725a1.256 1.256 0 0 0 .213-1.764zm-2.988-12.45c1.2 0 2.168-.97 2.168-2.168a2.166 2.166 0 0 0-2.168-2.167 2.17 2.17 0 0 0-2.167 2.167 2.17 2.17 0 0 0 2.167 2.168zm-15.7 3.487l.084.01s5.716-4.163 4.98-8.79c-.348-2.186-2.417-3.73-4.58-3.259-1.534.334-2.555 1.138-3.05 2.462-1.091-.9-2.378-1.084-3.873-.607C.495 2.613-.524 4.986.268 7.053c1.676 4.376 8.708 5.122 8.708 5.122l.068-.05zm-3.606-5.09A2.168 2.168 0 1 1 9.626 5.91a2.168 2.168 0 0 1-4.188 1.122z" id="petcreds" fill="currentColor"/></g></symbol><symbol id="plus" viewbox="0 0 28 29"><title>plus</title><g id="Page-1" fill="currentColor" fill-rule="evenodd"><path id="plus" fill="currentColor" d="M28 16.548v-5.037H16.49V0h-5.037v11.51H0v5.038h11.453v11.51h5.036v-11.51z"/></g></symbol><symbol id="rating-paw" viewbox="0 0 29 26"><title>rating-paw</title><g id="Page-1" fill="currentColor" fill-rule="evenodd"><path d="M23.75 20.084c0 4.239-4.69 5.039-8.983 5.039s-8.916-.8-8.916-5.039c0-4.238 4.623-9.566 8.916-9.566s8.984 5.328 8.984 9.566zM13.547 3.147c.47 2.111-.56 4.12-2.301 4.511-1.743.392-3.536-.987-4.005-3.08-.47-2.111.56-4.12 2.3-4.512 1.742-.391 3.536.988 4.006 3.081zm-6.325 6.4c.471 2.094-.56 4.12-2.301 4.511-1.742.375-3.536-1.004-4.006-3.098-.47-2.093.56-4.102 2.302-4.493 1.743-.392 3.535.987 4.005 3.08zm8.834-6.4c-.47 2.111.56 4.12 2.302 4.511 1.743.392 3.535-.987 4.005-3.08.471-2.111-.56-4.12-2.302-4.512-1.74-.391-3.535.988-4.005 3.081zm6.325 6.4c-.47 2.094.56 4.12 2.302 4.511 1.743.375 3.535-1.004 4.005-3.098.47-2.093-.56-4.102-2.301-4.493-1.742-.392-3.536.987-4.006 3.08z" id="rating-paw" fill="currentColor"/></g></symbol><symbol id="rating" viewbox="0 0 164 26"><title>vet-rating</title><g id="Page-1" fill="currentColor" fill-rule="evenodd"><g id="vet-rating" fill="currentColor"><path d="M22.95 20.084c0 4.239-4.691 5.039-8.984 5.039s-8.916-.8-8.916-5.039c0-4.238 4.623-9.566 8.916-9.566s8.984 5.328 8.984 9.566zM12.745 3.147c.47 2.111-.56 4.12-2.3 4.511-1.744.392-3.536-.987-4.006-3.08-.47-2.111.56-4.12 2.301-4.512 1.742-.391 3.536.988 4.005 3.081zm-6.325 6.4c.472 2.094-.56 4.12-2.301 4.511-1.741.375-3.536-1.004-4.005-3.098-.47-2.093.56-4.102 2.301-4.493 1.743-.392 3.535.987 4.005 3.08zm8.835-6.4c-.47 2.111.56 4.12 2.3 4.511 1.744.392 3.536-.987 4.006-3.08.472-2.111-.56-4.12-2.301-4.512-1.742-.391-3.536.988-4.005 3.081zm6.325 6.4c-.47 2.094.56 4.12 2.301 4.511 1.743.375 3.536-1.004 4.005-3.098.47-2.093-.56-4.102-2.301-4.493-1.741-.392-3.535.987-4.005 3.08z" id="Combined-Shape"/><path d="M90.95 20.084c0 4.239-4.691 5.039-8.984 5.039s-8.916-.8-8.916-5.039c0-4.238 4.623-9.566 8.916-9.566s8.984 5.328 8.984 9.566zM80.745 3.147c.47 2.111-.56 4.12-2.3 4.511-1.744.392-3.536-.987-4.006-3.08-.47-2.111.56-4.12 2.301-4.512 1.742-.391 3.536.988 4.005 3.081zm-6.325 6.4c.472 2.094-.56 4.12-2.301 4.511-1.741.375-3.536-1.004-4.005-3.098-.47-2.093.56-4.102 2.301-4.493 1.743-.392 3.535.987 4.005 3.08zm8.835-6.4c-.47 2.111.56 4.12 2.3 4.511 1.744.392 3.536-.987 4.006-3.08.472-2.111-.56-4.12-2.301-4.512-1.742-.391-3.536.988-4.005 3.081zm6.325 6.4c-.47 2.094.56 4.12 2.301 4.511 1.743.375 3.536-1.004 4.005-3.098.47-2.093-.56-4.102-2.301-4.493-1.741-.392-3.535.987-4.005 3.08z" id="Combined-Shape-Copy-2"/><path d="M56.95 20.084c0 4.239-4.691 5.039-8.984 5.039s-8.916-.8-8.916-5.039c0-4.238 4.623-9.566 8.916-9.566s8.984 5.328 8.984 9.566zM46.745 3.147c.47 2.111-.56 4.12-2.3 4.511-1.744.392-3.536-.987-4.006-3.08-.47-2.111.56-4.12 2.301-4.512 1.742-.391 3.536.988 4.005 3.081zm-6.325 6.4c.472 2.094-.56 4.12-2.301 4.511-1.741.375-3.536-1.004-4.005-3.098-.47-2.093.56-4.102 2.301-4.493 1.743-.392 3.535.987 4.005 3.08zm8.835-6.4c-.47 2.111.56 4.12 2.3 4.511 1.744.392 3.536-.987 4.006-3.08.472-2.111-.56-4.12-2.301-4.512-1.742-.391-3.536.988-4.005 3.081zm6.325 6.4c-.47 2.094.56 4.12 2.301 4.511 1.743.375 3.536-1.004 4.005-3.098.47-2.093-.56-4.102-2.301-4.493-1.741-.392-3.535.987-4.005 3.08z" id="Combined-Shape-Copy"/><path d="M124.95 20.084c0 4.239-4.691 5.039-8.984 5.039s-8.916-.8-8.916-5.039c0-4.238 4.623-9.566 8.916-9.566s8.984 5.328 8.984 9.566zM114.745 3.147c.47 2.111-.56 4.12-2.3 4.511-1.744.392-3.536-.987-4.006-3.08-.47-2.111.56-4.12 2.301-4.512 1.742-.391 3.536.988 4.005 3.081zm-6.325 6.4c.472 2.094-.56 4.12-2.301 4.511-1.741.375-3.536-1.004-4.005-3.098-.47-2.093.56-4.102 2.301-4.493 1.743-.392 3.535.987 4.005 3.08zm8.835-6.4c-.47 2.111.56 4.12 2.3 4.511 1.744.392 3.536-.987 4.006-3.08.472-2.111-.56-4.12-2.301-4.512-1.742-.391-3.536.988-4.005 3.081zm6.325 6.4c-.47 2.094.56 4.12 2.301 4.511 1.743.375 3.536-1.004 4.005-3.098.47-2.093-.56-4.102-2.301-4.493-1.741-.392-3.535.987-4.005 3.08z" id="Combined-Shape-Copy-3"/><path d="M158.95 20.084c0 4.239-4.691 5.039-8.984 5.039s-8.916-.8-8.916-5.039c0-4.238 4.623-9.566 8.916-9.566s8.984 5.328 8.984 9.566zM148.745 3.147c.47 2.111-.56 4.12-2.3 4.511-1.744.392-3.536-.987-4.006-3.08-.47-2.111.56-4.12 2.301-4.512 1.742-.391 3.536.988 4.005 3.081zm-6.325 6.4c.472 2.094-.56 4.12-2.301 4.511-1.741.375-3.536-1.004-4.005-3.098-.47-2.093.56-4.102 2.301-4.493 1.743-.392 3.535.987 4.005 3.08zm8.835-6.4c-.47 2.111.56 4.12 2.3 4.511 1.744.392 3.536-.987 4.006-3.08.472-2.111-.56-4.12-2.301-4.512-1.742-.391-3.536.988-4.005 3.081zm6.325 6.4c-.47 2.094.56 4.12 2.301 4.511 1.743.375 3.536-1.004 4.005-3.098.47-2.093-.56-4.102-2.301-4.493-1.741-.392-3.535.987-4.005 3.08z" id="Combined-Shape-Copy-4"/></g></g></symbol><symbol id="search" viewbox="0 0 28 28"><title>search</title><g id="Page-1" fill="currentColor" fill-rule="evenodd"><path d="M11.461 19.563a8.084 8.084 0 0 1-5.735-2.374 8.077 8.077 0 0 1-2.372-5.73c0-2.244.905-4.26 2.372-5.732a8.084 8.084 0 0 1 5.735-2.373c2.24 0 4.26.904 5.727 2.373a8.085 8.085 0 0 1 0 11.462 8.061 8.061 0 0 1-5.727 2.374zM28 25.623l-7.345-7.347a11.417 11.417 0 0 0 2.268-6.817C22.914 5.129 17.791 0 11.461 0 5.131 0 0 5.13 0 11.459c0 6.328 5.131 11.457 11.461 11.458 2.56 0 4.916-.85 6.823-2.27l7.352 7.345L28 25.622z" id="search" fill="currentColor"/></g></symbol><symbol id="share" viewbox="0 0 29 28"><title>share</title><g id="Page-1" fill="currentColor" fill-rule="evenodd"><path d="M20.665 3.11L7.985 15.797a.622.622 0 0 0 0 .877l3.47 3.47c.242.24.633.24.872-.165l12.6-12.606 2.049 2.05a.678.678 0 0 0 1.156-.48v-7.68C28.132.567 27.566 0 26.87 0h-7.68a.678.678 0 0 0-.479 1.156l1.955 1.955zm4.363 10.845c-.001.03-.008.059-.008.09v10.842H3.244V3.11h10.844c.03 0 .06-.006.088-.008V0H.132v27.999h28V13.955h-3.104z" id="share" fill="currentColor"/></g></symbol><symbol id="suitcase" viewbox="0 0 26 21"><title>suitcase</title><g id="Page-1" fill="currentColor" fill-rule="evenodd"><path d="M9.351 3.5V1.75h7V3.5h-7zm-4.812 0h-.875A3.075 3.075 0 0 0 .6 6.563v11.375A3.075 3.075 0 0 0 3.664 21h.875V3.5zm15.312 0h-1.75V1.312C18.101.589 17.513 0 16.79 0H8.914C8.189 0 7.6.588 7.6 1.313V3.5h-1.75V21h14V3.5zm5.25 3.063A3.075 3.075 0 0 0 22.04 3.5h-.875V21h.875a3.075 3.075 0 0 0 3.062-3.063V6.563z" id="suitcase" fill="currentColor"/></g></symbol><symbol id="twitter" viewbox="0 0 28 23"><title>twitter</title><g id="Page-1" fill="currentColor" fill-rule="evenodd"><path d="M27.24 2.627a11.193 11.193 0 0 1-3.215.864A5.568 5.568 0 0 0 26.479.415a10.99 10.99 0 0 1-3.543 1.348A5.57 5.57 0 0 0 18.856 0a5.58 5.58 0 0 0-5.582 5.583c0 .432.052.864.138 1.279A15.868 15.868 0 0 1 1.902 1.02c-.485.83-.761 1.78-.761 2.817 0 1.936.985 3.647 2.489 4.65a5.623 5.623 0 0 1-2.524-.71v.07a5.583 5.583 0 0 0 4.477 5.479c-.467.12-.968.19-1.47.19-.362 0-.708-.035-1.054-.086A5.593 5.593 0 0 0 8.28 17.3a11.18 11.18 0 0 1-6.93 2.385c-.468 0-.9-.017-1.349-.069a15.776 15.776 0 0 0 8.573 2.506c10.267 0 15.884-8.503 15.884-15.883 0-.242 0-.484-.017-.726a12.002 12.002 0 0 0 2.8-2.887z" id="twitter" fill="currentColor"/></g></symbol><symbol id="user-circled" viewbox="0 0 28 28"><title>user-circled</title><g id="Page-1" fill="currentColor" fill-rule="evenodd"><path d="M23.704 21.657c-.313-.771-.973-1.296-2.37-1.619-2.859-.66-5.52-1.238-4.231-3.667C21.024 8.974 18.143 5.018 14 5.018c-4.226 0-7.037 4.108-3.103 11.353 1.325 2.445-1.436 3.021-4.234 3.667-1.397.323-2.056.848-2.367 1.62A12.3 12.3 0 0 1 1.63 14C1.629 7.167 7.167 1.629 14 1.629S26.37 7.167 26.37 14c0 2.894-1.002 5.55-2.666 7.657zM14 0C6.28 0 0 6.28 0 14s6.28 14 14 14 14-6.28 14-14S21.72 0 14 0z" id="user-circled" fill="currentColor"/></g></symbol></svg>