<?xml version="1.0" encoding="utf-8"?>
<!-- Generator: Adobe Illustrator 16.0.0, SVG Export Plug-In . SVG Version: 6.00 Build 0)  -->
<!DOCTYPE svg PUBLIC "-//W3C//DTD SVG 1.1//EN" "http://www.w3.org/Graphics/SVG/1.1/DTD/svg11.dtd">
<svg version="1.1" id="Layer_1" xmlns="http://www.w3.org/2000/svg" xmlns:xlink="http://www.w3.org/1999/xlink" x="0px" y="0px"
	 width="22.495px" height="20.187px" viewBox="0 0 22.495 20.187" enable-background="new 0 0 22.495 20.187" xml:space="preserve">
<path fill="#D1D2D2" d="M18.438,16.131c0,3.404-3.77,4.056-7.217,4.056c-3.449,0-7.163-0.651-7.163-4.056
	c0-3.403,3.714-7.677,7.163-7.677C14.668,8.454,18.438,12.728,18.438,16.131"/>
<path fill="#D1D2D2" d="M10.24,2.534c0.378,1.684-0.45,3.303-1.849,3.617c-1.399,0.314-2.84-0.796-3.218-2.48
	c-0.377-1.684,0.451-3.304,1.85-3.618C8.422-0.26,9.862,0.85,10.24,2.534"/>
<path fill="#D1D2D2" d="M5.158,7.67c0.378,1.684-0.45,3.303-1.849,3.617s-2.84-0.796-3.218-2.48
	c-0.377-1.684,0.451-3.304,1.85-3.618C3.34,4.876,4.78,5.986,5.158,7.67"/>
<path fill="#D1D2D2" d="M12.255,2.534c-0.378,1.684,0.45,3.303,1.849,3.617s2.84-0.796,3.218-2.48
	c0.377-1.684-0.451-3.304-1.85-3.618C14.073-0.26,12.633,0.85,12.255,2.534"/>
<path fill="#D1D2D2" d="M17.337,7.67c-0.378,1.684,0.45,3.303,1.849,3.617c1.399,0.314,2.84-0.796,3.219-2.48
	c0.377-1.684-0.451-3.304-1.851-3.618C19.154,4.876,17.715,5.986,17.337,7.67"/>
</svg>
