<?xml version="1.0" encoding="UTF-8" standalone="no"?>
<svg width="201px" height="40px" viewBox="0 0 201 40" version="1.1" xmlns="http://www.w3.org/2000/svg" xmlns:xlink="http://www.w3.org/1999/xlink">
    <!-- Generator: Sketch 40.1 (33804) - http://www.bohemiancoding.com/sketch -->
    <title>petcreds-logo</title>
    <desc>Created with Sketch.</desc>
    <defs></defs>
    <g id="Page-1" stroke="none" stroke-width="1" fill="none" fill-rule="evenodd">
        <g id="petcreds-logo">
            <path d="M45.13752,34.32112 C44.43912,33.43392 43.15432,33.27952 42.26632,33.97712 C39.59112,36.08032 35.42472,36.52512 32.35912,35.03552 C30.89592,34.32512 29.15272,32.88992 29.15272,30.09152 L29.15272,28.79232 C32.17672,28.12192 34.38392,26.02592 34.38392,23.54272 C34.38392,20.51872 31.11272,18.06752 27.07752,18.06752 C23.04232,18.06752 19.77112,20.51872 19.77112,23.54272 C19.77112,26.04272 22.00872,28.15072 25.06392,28.80592 L25.06392,30.09152 C25.06392,32.88992 23.32072,34.32512 21.85832,35.03552 C18.79272,36.52512 14.62552,36.08032 11.95032,33.97712 C11.06232,33.27872 9.77672,33.43392 9.07912,34.32112 C8.38152,35.20912 8.53592,36.49392 9.42312,37.19152 C11.77192,39.03792 14.82472,39.99952 17.85832,39.99952 C19.86552,39.99952 21.86472,39.57792 23.64552,38.71312 C25.05432,38.02832 26.21672,37.10672 27.10872,36.00672 C27.99992,37.10672 29.16232,38.02832 30.57192,38.71312 C32.35192,39.57872 34.35112,39.99952 36.35832,39.99952 C39.39192,39.99952 42.44472,39.03792 44.79352,37.19152 C45.68072,36.49392 45.83512,35.20912 45.13752,34.32112" id="Fill-1" fill="#016182"></path>
            <path d="M40.28008,14.05704 C42.22888,14.05704 43.80808,12.47704 43.80808,10.52904 C43.80808,8.58024 42.22888,7.00104 40.28008,7.00104 C38.33128,7.00104 36.75208,8.58024 36.75208,10.52904 C36.75208,12.47704 38.33128,14.05704 40.28008,14.05704" id="Fill-3" fill="#016182"></path>
            <path d="M73.30976,21.10544 C73.30976,18.49184 71.74816,16.64464 69.45376,16.64464 C67.22336,16.64464 65.66256,18.49184 65.66256,21.10544 C65.66256,23.78144 67.22336,25.59744 69.45376,25.59744 C71.74816,25.59744 73.30976,23.75024 73.30976,21.10544 M78.85376,21.26464 C78.85376,26.49024 75.73136,29.96304 70.92016,29.96304 C68.68976,29.96304 66.87376,29.07104 65.66256,27.47824 L65.66256,35.30144 C65.66256,35.66144 65.37056,35.95344 65.01056,35.95344 L60.80256,35.95344 C60.44256,35.95344 60.15056,35.66144 60.15056,35.30144 L60.15056,13.25024 C60.15056,12.88944 60.44256,12.59744 60.80256,12.59744 L65.01056,12.59744 C65.37056,12.59744 65.66256,12.88944 65.66256,13.25024 L65.66256,14.85984 C66.87376,13.29904 68.62576,12.40624 70.79216,12.40624 C75.63536,12.40624 78.85376,15.94304 78.85376,21.26464" id="Fill-7" fill="#FFFFFF"></path>
            <path d="M92.71368,19.70312 C92.71368,17.60072 91.37528,16.23032 89.40008,16.23032 C87.48808,16.23032 86.18088,17.63272 85.83128,19.70312 L92.71368,19.70312 Z M97.37688,22.66632 L85.92648,22.66632 C86.46808,24.70552 87.93368,25.85272 89.97288,25.85272 C91.28808,25.85272 92.57928,25.38632 93.65128,24.49512 C93.90728,24.28152 94.28248,24.29512 94.52088,24.52872 L96.51208,26.47592 C96.77688,26.73512 96.77608,27.16552 96.50488,27.41912 C94.77528,29.03432 92.37368,29.96312 89.49528,29.96312 C83.77848,29.96312 80.24728,26.32072 80.38648,20.92712 C80.51128,16.09352 84.57208,12.38152 89.40728,12.40712 C95.20488,12.43672 98.17368,16.14312 98.03048,22.02392 C98.02168,22.37992 97.73288,22.66632 97.37688,22.66632 L97.37688,22.66632 Z" id="Fill-9" fill="#FFFFFF"></path>
            <path d="M111.94144,28.34216 C112.02704,28.64536 111.88544,28.96856 111.60224,29.10776 C110.42384,29.68456 108.94784,30.02696 107.49664,30.02696 C104.18304,30.02696 101.79344,28.14696 101.79344,24.57816 L101.79344,16.99496 L100.05584,16.99496 C99.69504,16.99496 99.40304,16.70296 99.40304,16.34216 L99.40304,14.04616 C99.40304,13.68616 99.69504,13.39416 100.05584,13.39416 L101.79344,13.39416 L101.79344,9.26696 C101.79344,8.90696 102.08544,8.61496 102.44544,8.61496 L106.62144,8.61496 C106.98144,8.61496 107.27344,8.90696 107.27344,9.26696 L107.27344,13.36216 L111.11424,13.36216 C111.47424,13.36216 111.76624,13.65416 111.76624,14.01416 L111.76624,16.34216 C111.76624,16.70296 111.47424,16.99496 111.11424,16.99496 L107.27344,16.99496 L107.27344,23.71816 C107.27344,25.05656 107.84704,25.62936 108.86624,25.59736 C109.28624,25.59736 109.79184,25.47816 110.35744,25.27656 C110.71024,25.15096 111.09504,25.35496 111.19744,25.71496 L111.94144,28.34216 Z" id="Fill-11" fill="#FFFFFF"></path>
            <path d="M129.30664,16.61832 L126.43144,18.35752 C126.15944,18.52152 125.81464,18.45992 125.60104,18.22472 C124.82344,17.36792 123.76664,16.86792 122.47144,16.86792 C120.33624,16.86792 118.87064,18.61992 118.87064,21.20072 C118.87064,23.84552 120.33624,25.56632 122.47144,25.56632 C123.82024,25.56632 124.90664,25.09112 125.65064,24.11912 C125.85544,23.85192 126.21944,23.76552 126.51064,23.93592 L129.41224,25.63992 C129.73784,25.83192 129.83784,26.26152 129.62344,26.57192 C128.13384,28.72552 125.52264,29.96312 122.18504,29.96312 C116.89544,29.96312 113.32664,26.45832 113.32664,21.23272 C113.32664,15.94312 116.92744,12.40632 122.24904,12.40632 C125.37464,12.40632 127.93864,13.58552 129.49704,15.67272 C129.72664,15.97992 129.63464,16.41992 129.30664,16.61832" id="Fill-16" fill="#FFC639"></path>
            <path d="M138.17928,15.49728 C139.24168,13.68848 140.92568,12.60368 143.04488,12.38368 C143.42568,12.34448 143.75528,12.65168 143.75528,13.03488 L143.75528,16.62928 C143.75528,16.99488 143.45368,17.28288 143.08808,17.27888 C140.27688,17.24608 138.44568,18.69728 138.17928,20.94608 L138.17928,29.11968 C138.17928,29.48048 137.88728,29.77168 137.52728,29.77168 L133.31928,29.77168 C132.95928,29.77168 132.66728,29.48048 132.66728,29.11968 L132.66728,13.25008 C132.66728,12.89008 132.95928,12.59728 133.31928,12.59728 L137.52728,12.59728 C137.88728,12.59728 138.17928,12.89008 138.17928,13.25008 L138.17928,15.49728 Z" id="Fill-18" fill="#FFC639"></path>
            <path d="M157.16832,19.70312 C157.16832,17.60072 155.83072,16.23032 153.85472,16.23032 C151.94272,16.23032 150.63632,17.63272 150.28592,19.70312 L157.16832,19.70312 Z M161.83152,22.66632 L150.38192,22.66632 C150.92352,24.70552 152.38912,25.85272 154.42832,25.85272 C155.74352,25.85272 157.03472,25.38632 158.10592,24.49512 C158.36272,24.28152 158.73792,24.29512 158.97632,24.52872 L160.96752,26.47592 C161.23232,26.73512 161.23072,27.16552 160.96032,27.41912 C159.22992,29.03432 156.82912,29.96312 153.95072,29.96312 C148.23312,29.96312 144.70272,26.32072 144.84112,20.92712 C144.96592,16.09352 149.02672,12.38152 153.86272,12.40712 C159.66032,12.43672 162.62912,16.14312 162.48512,22.02392 C162.47632,22.37992 162.18752,22.66632 161.83152,22.66632 L161.83152,22.66632 Z" id="Fill-20" fill="#FFC639"></path>
            <path d="M177.24104,21.2328 C177.24104,18.588 175.71144,16.772 173.41704,16.772 C171.12344,16.772 169.59384,18.588 169.56184,21.2328 C169.59384,23.8776 171.12344,25.7256 173.41704,25.7256 C175.71144,25.7256 177.24104,23.8776 177.24104,21.2328 M182.10104,29.772 L177.89304,29.772 C177.53304,29.772 177.24104,29.48 177.24104,29.12 C177.24104,28.576 176.60824,28.264 176.18664,28.608 C175.08744,29.5072 173.70504,29.9952 172.07864,29.9952 C167.23624,29.9952 164.04984,26.4264 164.04984,21.1056 C164.04984,15.848 167.20424,12.3744 171.95144,12.3744 C173.63304,12.3744 175.06824,12.8672 176.19144,13.7752 C176.61304,14.1152 177.24104,13.8 177.24104,13.2592 L177.24104,6.7816 C177.24104,6.4216 177.53304,6.1296 177.89304,6.1296 L182.10104,6.1296 C182.46104,6.1296 182.75304,6.4216 182.75304,6.7816 L182.75304,29.12 C182.75304,29.48 182.46104,29.772 182.10104,29.772" id="Fill-22" fill="#FFC639"></path>
            <path d="M200.53168,14.28632 L198.95328,17.28232 C198.78928,17.59352 198.40528,17.72152 198.09088,17.56392 C196.23648,16.63512 194.53808,16.13432 193.23488,16.13432 C192.24768,16.13432 191.54608,16.51752 191.54608,17.31352 C191.54608,19.67112 200.59488,18.52392 200.56368,24.51512 C200.56368,28.05192 197.47248,29.99512 193.33088,29.99512 C190.67488,29.99512 188.10208,29.28472 186.09088,27.91432 C185.81808,27.72872 185.71968,27.37192 185.86768,27.07672 L187.04368,24.72552 C187.21488,24.38232 187.64448,24.26232 187.97008,24.46552 C189.76368,25.58552 191.73968,26.20312 193.45808,26.20312 C194.54128,26.20312 195.33808,25.82072 195.33808,25.02392 C195.33808,22.50712 186.44848,23.81352 186.47968,17.79112 C186.47968,14.25432 189.47488,12.34312 193.45808,12.34312 C195.94368,12.34312 198.42848,13.04392 200.53168,14.28632" id="Fill-24" fill="#FFC639"></path>
            <path d="M14.71992,19.73328 C14.80952,19.74448 14.85752,19.74928 14.85752,19.74928 C14.85752,19.74928 24.16152,12.97408 22.96392,5.44368 C22.39752,1.88448 19.02872,-0.62912 15.50792,0.13808 C13.01112,0.68208 11.34872,1.98848 10.54312,4.14288 C8.76712,2.68048 6.67432,2.38048 4.23992,3.15728 C0.80712,4.25328 -0.85368,8.11408 0.43592,11.47968 C3.16392,18.59968 14.60952,19.81648 14.60952,19.81648 C14.60952,19.81648 14.64792,19.78768 14.71992,19.73328 Z M8.85192,11.44688 C8.34792,9.56448 9.46472,7.63008 11.34712,7.12608 C13.22872,6.62128 15.16392,7.73808 15.66792,9.62048 C16.17192,11.50288 15.05512,13.43728 13.17272,13.94208 C11.29112,14.44608 9.35592,13.32928 8.85192,11.44688 Z" id="Combined-Shape" fill="#FFC639"></path>
        </g>
    </g>
</svg>