<?xml version="1.0" encoding="UTF-8" standalone="no"?>
<svg width="450px" height="339px" viewBox="0 0 450 339" version="1.1" xmlns="http://www.w3.org/2000/svg" xmlns:xlink="http://www.w3.org/1999/xlink">
    <!-- Generator: Sketch 40.1 (33804) - http://www.bohemiancoding.com/sketch -->
    <title>pets</title>
    <desc>Created with Sketch.</desc>
    <defs>
        <polygon id="path-1" points="449.107 279.220347 449.107 354 0 354 0 0.311 449.107 0.311 449.107 279.220347 449.10717 354.000141 -7.93205675e-05 354.000141 -7.93205675e-05 279.220347"></polygon>
        <polygon id="path-3" points="449.107 315.8482 449.107 0.311 0.000230319716 0.311 0.000230319716 315.8482 449.107 315.8482"></polygon>
        <polygon id="path-5" points="449.107 279.220347 449.107 354 0 354 0 0.311 449.107 0.311 449.107 279.220347 449.10717 354.000141 -7.93205675e-05 354.000141 -7.93205675e-05 279.220347"></polygon>
        <polygon id="path-7" points="33.275 17.1082 33.275 0.0022 0.0409 0.0022 0.0409 17.1082 33.275 17.1082"></polygon>
        <polygon id="path-9" points="21.9457 0.132 0.8117 0.132 0.8117 31.1996 21.9457 31.1996 21.9457 0.132"></polygon>
        <polygon id="path-11" points="48.064 68.1652 48.064 0.7442 0.3169 0.7442 0.3169 68.1652 48.064 68.1652"></polygon>
        <polygon id="path-13" points="0.775 0.1553 0.775 8.1123 28.0154818 8.1123 28.0154818 0.1553 0.775 0.1553"></polygon>
    </defs>
    <g id="Page-1" stroke="none" stroke-width="1" fill="none" fill-rule="evenodd">
        <g id="pets" transform="translate(0.000000, -1.000000)">
            <g id="Group-16" transform="translate(0.000000, 0.689000)">
                <g id="Group-3">
                    <mask id="mask-2" fill="white">
                        <use xlink:href="#path-1"></use>
                    </mask>
                    <g id="Clip-2"></g>
                    <path d="M59.2217,342.5244 C-14.0383,323.4314 -11.8303,303.1274 25.3277,290.5374 C69.9377,275.4214 434.9627,272.3644 448.5197,300.7654 C463.6557,332.4714 182.3767,374.6214 59.2217,342.5244" id="Fill-1" fill="#32A2DB" mask="url(#mask-2)"></path>
                </g>
                <g id="Group-6">
                    <mask id="mask-4" fill="white">
                        <use xlink:href="#path-3"></use>
                    </mask>
                    <g id="Clip-5"></g>
                    <path d="M389.8857,48.7314 C463.1457,129.2944 460.9377,214.9734 423.7797,268.0974 C379.1697,331.8774 14.1447,344.7774 0.5877,224.9364 C-14.5483,91.1494 266.7307,-86.6986 389.8857,48.7314" id="Fill-4" fill="#DFF1FA" mask="url(#mask-4)"></path>
                </g>
                <g id="Group-9">
                    <mask id="mask-6" fill="white">
                        <use xlink:href="#path-5"></use>
                    </mask>
                    <g id="Clip-8"></g>
                    <path d="M59.2217,342.5244 C-14.0383,323.4314 -11.8303,303.1274 25.3277,290.5374 C69.9377,275.4214 434.9627,272.3644 448.5197,300.7654 C463.6557,332.4714 182.3767,374.6214 59.2217,342.5244" id="Fill-7" fill="#32A2DB" mask="url(#mask-6)"></path>
                </g>
                <path d="M209.5225,333.6885 C205.2115,333.6885 201.6285,332.1605 198.5685,329.0185 C196.3525,326.7405 194.4465,323.5575 192.9045,319.5575 L191.3015,315.4005 L186.9875,316.5205 C182.9975,317.5595 176.5945,318.7955 168.7635,318.7955 C161.1655,318.7955 155.3345,317.6185 151.7825,316.6285 L147.4215,315.4165 L145.7865,319.6345 C144.2515,323.5955 142.3545,326.7515 140.1485,329.0185 C137.0885,332.1605 133.5055,333.6885 129.1945,333.6885 C122.8605,333.6885 115.5255,330.6555 113.7615,324.8595 L112.3655,320.2705 L107.7245,321.4795 C105.2375,322.1265 102.1595,322.4555 98.5735,322.4555 C93.2805,322.4555 86.0255,319.6595 83.0055,314.4775 C80.8345,310.7495 81.9225,307.2395 83.2195,304.9505 C85.0155,301.7795 87.9545,299.4155 91.9505,297.9205 L94.8575,296.8355 L95.1735,293.7495 C95.6645,288.9305 96.8625,283.7535 98.7355,278.3635 L100.1275,274.3545 L96.3955,272.3325 C78.1065,262.4265 74.6355,243.1575 74.4355,230.9385 C81.6095,255.6215 99.5915,258.0225 105.5045,258.1145 L108.2985,258.1585 L109.7975,255.7985 C110.6755,254.4185 111.3765,253.3805 111.8105,252.7535 L112.9255,251.1415 L110.9685,237.5205 L116.7655,203.0845 L116.5575,202.1395 C107.5675,161.1995 103.3765,111.4265 102.8385,104.7175 L131.8545,79.9395 C135.2045,81.3735 141.3835,84.6245 144.8705,88.5185 L146.8135,90.6905 L149.6615,90.0665 C153.3995,89.2475 160.8545,87.8725 168.7745,87.8725 C177.1185,87.8725 185.7695,89.4435 189.1015,90.1185 L191.9145,90.6885 L193.8225,88.5455 C197.2895,84.6575 203.4465,81.4075 206.8635,79.9405 L235.8805,104.7165 C235.3615,111.1895 231.1675,161.1255 222.1595,202.1395 L221.9525,203.0845 L227.7495,237.5205 L225.7935,251.1405 L226.9055,252.7515 C230.3345,257.7145 241.6685,275.3395 243.5445,293.7495 L243.8595,296.8345 L246.7655,297.9205 C250.7635,299.4155 253.7025,301.7805 255.4985,304.9505 C256.7955,307.2395 257.8835,310.7495 255.7115,314.4755 C252.6915,319.6595 245.4355,322.4555 240.1425,322.4555 C236.5565,322.4555 233.4785,322.1265 230.9915,321.4795 L226.3505,320.2705 L224.9545,324.8595 C223.1905,330.6555 215.8565,333.6885 209.5225,333.6885" id="Fill-10" fill="#FFEBC0"></path>
                <path d="M185.0723,237.1104 C185.0723,245.2144 178.5043,251.7814 170.4013,251.7814 C162.2983,251.7814 155.7303,245.2144 155.7303,237.1104 C155.7303,229.0074 162.2983,222.4394 170.4013,222.4394 C178.5043,222.4394 185.0723,229.0074 185.0723,237.1104" id="Fill-12" fill="#016182"></path>
                <path d="M140.4141,136.0967 C143.4321,135.2877 146.5351,137.0787 147.3431,140.0967 C148.1511,143.1157 146.3601,146.2177 143.3431,147.0267 C140.3251,147.8347 137.2221,146.0437 136.4141,143.0257 C135.6041,140.0077 137.3951,136.9057 140.4141,136.0967 M146.7591,159.4037 C146.7591,159.4037 146.8371,159.3467 146.9801,159.2387 C147.1591,159.2607 147.2551,159.2707 147.2551,159.2707 C147.2551,159.2707 165.8001,145.7637 163.4131,130.7527 C162.2851,123.6587 155.5691,118.6477 148.5511,120.1777 C143.5751,121.2627 140.2601,123.8667 138.6541,128.1607 C135.1151,125.2447 130.9421,124.6467 126.0901,126.1957 C119.2471,128.3807 115.9361,136.0767 118.5071,142.7857 C123.9441,156.9787 146.7591,159.4037 146.7591,159.4037" id="Fill-14" fill="#FAAF4C"></path>
            </g>
            <g id="Group-46" transform="translate(74.000000, 79.689000)">
                <path d="M95.3584,227.4873 C89.3474,227.4873 78.0624,224.1323 78.0624,224.1323 C78.0624,224.1323 76.0644,228.5443 75.7314,229.3773 C75.3984,230.2093 74.8994,233.5393 74.5664,234.8713 C74.2334,236.2023 76.5644,238.2003 76.5644,238.2003 C76.5644,238.2003 83.5564,239.0333 84.3884,239.0333 C85.2214,239.0333 100.8714,239.1993 102.0364,239.1993 C103.2024,239.1993 113.3564,238.8663 113.3564,238.8663 L116.0204,236.2023 L112.6904,224.1323 C112.6904,224.1323 101.3704,227.4873 95.3584,227.4873" id="Fill-17" fill="#FAAF4C"></path>
                <path d="M38.6895,231.374 C22.7085,239.865 8.2235,230.75 8.2235,230.75 L5.4765,229.002 C5.4765,229.002 5.7265,235.869 5.4765,236.743 C5.2265,237.617 6.9745,239.199 6.9745,239.199 C6.9745,239.199 14.5915,244.859 16.3395,245.109 C18.0875,245.359 24.7065,246.108 25.3305,246.108 C25.9545,246.108 36.1925,245.733 36.5665,245.483 C36.9415,245.234 37.3165,241.738 37.3165,241.458 C37.3165,241.178 38.6895,231.374 38.6895,231.374" id="Fill-19" fill="#FAAF4C"></path>
                <path d="M39.6885,238.3662 C39.6885,238.3662 37.1915,245.4832 37.0665,246.1072 C36.9415,246.7322 38.6895,250.4782 38.6895,250.4782 C38.6895,250.4782 47.0555,252.9752 48.6785,253.2242 C50.3015,253.4742 56.6695,254.3482 58.1675,254.4732 C59.6675,254.5982 61.7895,253.3492 62.2895,253.1002 C62.7885,252.8502 70.1545,248.3552 70.1545,248.3552 L72.1525,239.4902 C53.5485,249.4792 39.6885,238.3662 39.6885,238.3662" id="Fill-21" fill="#FAAF4C"></path>
                <g id="Group-25" transform="translate(151.000000, 229.000000)">
                    <mask id="mask-8" fill="white">
                        <use xlink:href="#path-7"></use>
                    </mask>
                    <g id="Clip-24"></g>
                    <path d="M33.2539,7.7432 C33.0039,6.8692 33.2539,0.0022 33.2539,0.0022 L30.5069,1.7502 C30.5069,1.7502 16.0229,10.8652 0.0409,2.3742 C0.0409,2.3742 1.4139,12.1792 1.4139,12.4582 C1.4139,12.7372 1.7889,16.2332 2.1639,16.4832 C2.5379,16.7332 12.7759,17.1082 13.3999,17.1082 C14.0249,17.1082 20.6429,16.3582 22.3909,16.1092 C24.1389,15.8592 31.7559,10.1992 31.7559,10.1992 C31.7559,10.1992 33.5039,8.6172 33.2539,7.7432" id="Fill-23" fill="#FAAF4C" mask="url(#mask-8)"></path>
                </g>
                <path d="M150.042,238.3662 C150.042,238.3662 136.182,249.4792 117.577,239.4902 L119.575,248.3552 C119.575,248.3552 126.942,252.8502 127.441,253.1002 C127.941,253.3492 130.063,254.5982 131.563,254.4732 C133.061,254.3482 139.429,253.4742 141.052,253.2242 C142.675,252.9752 151.041,250.4782 151.041,250.4782 C151.041,250.4782 152.789,246.7322 152.664,246.1072 C152.539,245.4832 150.042,238.3662 150.042,238.3662" id="Fill-26" fill="#FAAF4C"></path>
                <g id="Group-30" transform="translate(0.000000, 160.000000)" fill="#FAAF4C">
                    <path d="M19.7109,33.292 C22.0829,34.415 23.7069,34.29 23.7069,34.29 L26.5779,32.168 L24.5809,28.297 C11.5949,23.053 3.7439,4.439 3.7439,4.439 L0.7319,0.079 C0.7319,0.079 0.3569,6.945 0.4359,8.319 C0.5139,9.692 2.3549,14.438 2.3549,14.937 C2.3549,15.437 9.3469,24.552 10.4709,25.925 C11.5949,27.299 17.3389,32.168 19.7109,33.292" id="Fill-28"></path>
                </g>
                <path d="M52.5908,128.501 C51.5918,128.146 44.9328,127.924 44.9328,127.924 L41.6188,126.824 L38.9908,130.819 C38.9908,130.819 69.9028,141.349 96.2908,141.349 C122.6808,141.349 151.7258,130.819 151.7258,130.819 L149.0988,126.824 L128.5068,129.685 C128.5068,129.685 95.8428,132.767 95.2778,132.767 C94.7108,132.767 77.4978,130.896 74.5338,130.566 C71.5698,130.236 53.5898,128.857 52.5908,128.501" id="Fill-31" fill="#FAAF4C"></path>
                <path d="M71.2373,7.123 C71.2373,7.123 60.4163,0.464 59.7503,0.132 L55.5883,2.296 C55.5883,2.296 57.5863,16.446 57.4193,18.943 C57.2533,21.44 55.0883,28.6 55.0883,28.6 L53.5733,31.199 C64.1703,20.742 74.7063,13.335 74.7063,13.335 L71.2373,7.123 Z" id="Fill-33" fill="#FAAF4C"></path>
                <path d="M34.0947,57.9023 C36.5887,51.4353 41.1317,44.9153 46.3027,38.9313 C47.0717,38.0443 47.8537,37.1673 48.6447,36.3033 C45.4577,37.2253 40.1207,38.7553 39.7717,38.7553 C39.2727,38.7553 36.1097,35.6203 36.1097,35.6203 L27.2857,29.5983 L27.2857,56.4013 C27.2857,57.5673 34.0947,57.9023 34.0947,57.9023" id="Fill-35" fill="#FAAF4C"></path>
                <path d="M53.5732,31.1992 C51.9182,32.8322 50.2612,34.5382 48.6442,36.3032 C50.0182,35.9052 50.9962,35.6202 50.9962,35.6202 L53.5732,31.1992 Z" id="Fill-37" fill="#FAAF4C"></path>
                <path d="M156.4238,57.9023 C156.4238,57.9023 163.2328,57.5673 163.2328,56.4013 L163.2328,29.5983 L154.4078,35.6203 C154.4078,35.6203 151.2448,38.7553 150.7468,38.7553 C150.3978,38.7553 145.0608,37.2253 141.8738,36.3033 C142.6648,37.1673 143.4458,38.0443 144.2158,38.9313 C149.3868,44.9153 153.9298,51.4353 156.4238,57.9023" id="Fill-39" fill="#FAAF4C"></path>
                <g id="Group-43" transform="translate(115.000000, 0.000000)">
                    <mask id="mask-10" fill="white">
                        <use xlink:href="#path-9"></use>
                    </mask>
                    <g id="Clip-42"></g>
                    <path d="M20.4297,28.5996 C20.4297,28.5996 18.2657,21.4406 18.0987,18.9436 C17.9327,16.4466 19.9307,2.2956 19.9307,2.2956 L15.7687,0.1296 C15.1027,0.4646 4.2817,7.1236 4.2817,7.1236 L0.8117,13.3346 C0.8117,13.3346 11.3477,20.7426 21.9457,31.1996 L20.4297,28.5996 Z" id="Fill-41" fill="#FAAF4C" mask="url(#mask-10)"></path>
                </g>
                <path d="M141.874,36.3037 C140.256,34.5377 138.6,32.8307 136.946,31.1997 L139.522,35.6197 C139.522,35.6197 140.499,35.9057 141.874,36.3037" id="Fill-44" fill="#FAAF4C"></path>
            </g>
            <g id="Group-71" transform="translate(69.000000, 74.689000)">
                <path d="M72.9727,107.1309 C71.8537,108.5549 72.1007,110.6159 73.5247,111.7339 C77.2897,114.6949 82.1867,116.2369 87.0497,116.2369 C90.2697,116.2369 93.4747,115.5619 96.3287,114.1739 C98.5897,113.0759 100.4527,111.5979 101.8837,109.8349 C103.3137,111.5979 105.1767,113.0759 107.4367,114.1739 C110.2917,115.5619 113.4957,116.2369 116.7167,116.2369 C121.5787,116.2369 126.4757,114.6949 130.2417,111.7339 C131.6647,110.6159 131.9117,108.5549 130.7937,107.1309 C129.6747,105.7079 127.6147,105.4599 126.1907,106.5789 C121.8997,109.9519 115.2187,110.6649 110.3027,108.2769 C107.9577,107.1369 105.1607,104.8369 105.1607,100.3479 L105.1607,98.2659 C110.0107,97.1909 113.5497,93.8299 113.5497,89.8469 C113.5497,84.9979 108.3047,81.0679 101.8327,81.0679 C95.3637,81.0679 90.1187,84.9979 90.1187,89.8469 C90.1187,93.8569 93.7047,97.2359 98.6047,98.2869 L98.6047,100.3479 C98.6047,104.8369 95.8087,107.1369 93.4637,108.2769 C88.5487,110.6649 81.8667,109.9519 77.5757,106.5789 C76.1527,105.4599 74.0907,105.7079 72.9727,107.1309" id="Fill-47" fill="#016182"></path>
                <path d="M131.4941,73.8037 C134.6191,73.8037 137.1521,71.2717 137.1521,68.1467 C137.1521,65.0227 134.6191,62.4887 131.4941,62.4887 C128.3691,62.4887 125.8361,65.0227 125.8361,68.1467 C125.8361,71.2717 128.3691,73.8037 131.4941,73.8037" id="Fill-49" fill="#016182"></path>
                <path d="M74.3428,73.0264 C77.3608,72.2174 79.1518,69.1154 78.3438,66.0974 C77.5338,63.0784 74.4318,61.2884 71.4128,62.0964 C68.3958,62.9054 66.6048,66.0074 67.4128,69.0254 C68.2228,72.0444 71.3238,73.8354 74.3428,73.0264" id="Fill-51" fill="#016182"></path>
                <path d="M184.9863,239.4697 C182.7023,243.3887 176.6223,246.4567 171.1433,246.4567 C165.8003,246.4567 162.7133,245.6927 161.1753,245.1407 C160.2423,238.5807 156.2413,233.4077 154.0973,231.0477 L160.4773,186.6177 C164.7293,193.9387 170.4463,205.5397 172.2393,217.4747 C168.0043,216.9127 164.7493,217.1947 164.4313,217.2247 C162.5083,217.4077 161.0983,219.1127 161.2813,221.0337 C161.4633,222.9567 163.1693,224.3767 165.0903,224.1857 C165.1753,224.1787 169.9713,223.7637 175.0063,225.1207 C175.1963,225.1917 175.3913,225.2487 175.5953,225.2857 C179.1323,226.3367 182.7013,228.3017 184.7603,231.9357 C186.2923,234.6377 186.3653,237.1037 184.9863,239.4697 L184.9863,239.4697 Z M140.5233,257.6907 C136.7793,257.6907 133.6643,256.3607 131.0013,253.6237 C126.0823,248.5707 120.3893,236.1127 121.2133,205.4577 C121.2643,203.5297 119.7423,201.9207 117.8113,201.8687 C115.8733,201.8067 114.2753,203.3387 114.2223,205.2717 C113.8373,219.6337 114.8303,231.4427 117.1583,240.6647 C113.6273,241.5577 107.3573,242.7977 99.7623,242.7977 C92.4033,242.7977 86.7373,241.6287 83.5373,240.7587 C85.8823,231.5237 86.8823,219.6827 86.4953,205.2717 C86.4423,203.3407 84.8223,201.8157 82.9063,201.8687 C80.9753,201.9207 79.4533,203.5297 79.5053,205.4577 C80.3283,236.1127 74.6353,248.5707 69.7163,253.6237 C67.0533,256.3607 63.9393,257.6907 60.1953,257.6907 C54.8353,257.6907 46.3313,255.0347 46.3313,247.9107 C46.3313,240.7647 52.6203,234.8937 52.6753,234.8407 C53.5343,234.0617 53.9503,232.9067 53.7853,231.7587 L43.9913,163.5417 L49.0033,133.7647 C57.1793,136.4247 76.7833,142.0627 97.7953,142.7387 L97.7953,149.4867 L104.7873,149.4867 L104.7873,142.7747 C125.6943,142.2867 143.8883,136.6917 151.7373,133.8987 L156.7253,163.5417 L146.9323,231.7587 C146.7683,232.9067 147.1823,234.0617 148.0423,234.8407 C148.1043,234.8997 154.3843,240.8067 154.3843,247.9107 C154.3843,255.0347 145.8823,257.6907 140.5233,257.6907 L140.5233,257.6907 Z M39.5413,245.1417 C38.0053,245.6927 34.9163,246.4567 29.5743,246.4567 C24.0943,246.4567 18.0143,243.3887 15.7323,239.4717 C14.3523,237.1037 14.4243,234.6377 15.9573,231.9357 C21.0293,222.9857 35.4583,224.1667 35.6323,224.1867 C37.5543,224.3517 39.2543,222.9547 39.4363,221.0337 C39.6183,219.1127 38.2083,217.4077 36.2853,217.2247 C35.9663,217.1937 32.7133,216.9117 28.4793,217.4747 C30.2723,205.5387 35.9883,193.9377 40.2403,186.6167 L46.6193,231.0477 C44.4753,233.4067 40.4743,238.5807 39.5413,245.1417 L39.5413,245.1417 Z M8.5483,169.1197 C15.7533,181.0517 26.1353,184.6337 32.7083,185.6687 C31.0323,188.7077 29.2453,192.2507 27.5793,196.1387 C15.7933,189.4297 10.6333,178.8297 8.5483,169.1197 L8.5483,169.1197 Z M36.8433,41.9247 C39.2363,44.2177 42.0943,46.2347 45.3003,47.1237 C46.4623,47.4467 47.6253,47.6067 48.7793,47.6067 C51.1123,47.6067 53.4053,46.9497 55.5403,45.6577 C65.3733,39.6977 66.4433,20.0417 66.3043,9.8627 C69.6103,11.6807 73.4173,14.2477 75.3483,17.0727 C76.0103,18.0387 77.0983,18.5927 78.2353,18.5927 C78.5283,18.5927 78.8263,18.5567 79.1193,18.4797 C79.2193,18.4527 89.2133,15.8697 99.7753,15.8697 C110.3523,15.8697 121.5713,18.4747 121.6823,18.5007 C123.0863,18.8287 124.5513,18.2647 125.3693,17.0727 C127.2923,14.2607 131.1023,11.6917 134.4123,9.8687 C134.2743,20.0497 135.3453,39.6987 145.1773,45.6577 C147.3133,46.9507 149.6043,47.6067 151.9383,47.6067 C153.0923,47.6067 154.2573,47.4467 155.4163,47.1237 C158.6223,46.2347 161.4823,44.2177 163.8733,41.9247 C162.1203,60.1157 158.1513,95.6547 151.4633,126.5457 C145.6023,128.7477 124.9863,135.8197 101.8823,135.8197 C78.6433,135.8197 55.6683,128.6417 49.2383,126.4657 C42.5593,95.5927 38.5953,60.1007 36.8433,41.9247 L36.8433,41.9247 Z M59.3313,11.5747 C59.2983,22.6867 57.4703,36.3107 51.9153,39.6767 C50.3543,40.6227 48.8493,40.8507 47.1793,40.3897 C43.0443,39.2457 39.0453,34.2697 36.7953,30.8187 L59.3313,11.5747 Z M163.9193,30.8157 C161.6863,34.2197 157.6533,39.2467 153.5463,40.3877 C151.8713,40.8527 150.3663,40.6257 148.8023,39.6767 C143.2463,36.3107 141.4183,22.6867 141.3853,11.5747 L163.9193,30.8157 Z M190.8433,228.4887 C188.1073,223.6577 183.8333,220.8567 179.5133,219.2427 C177.5023,199.5147 165.3673,180.7657 162.0133,175.9127 L163.7253,163.9947 C163.7763,163.6387 163.7723,163.2747 163.7123,162.9177 L158.0383,129.2117 C167.7443,85.0107 171.8793,30.8777 171.9193,30.3337 C171.9233,30.2887 171.9143,30.2457 171.9163,30.2007 C171.9213,30.0577 171.9183,29.9137 171.9053,29.7707 C171.8983,29.6897 171.8913,29.6097 171.8793,29.5307 C171.8583,29.3937 171.8243,29.2587 171.7863,29.1257 C171.7653,29.0537 171.7503,28.9787 171.7243,28.9077 C171.6643,28.7367 171.5883,28.5707 171.5013,28.4087 C171.4883,28.3857 171.4793,28.3587 171.4653,28.3347 C171.3623,28.1537 171.2393,27.9807 171.1003,27.8177 C171.0553,27.7647 171.0033,27.7197 170.9563,27.6707 C170.8733,27.5827 170.7963,27.4927 170.7033,27.4137 L140.4103,1.5457 C140.3433,1.4907 140.2723,1.4437 140.2023,1.3927 C140.1603,1.3627 140.1213,1.3287 140.0783,1.3017 C139.9093,1.1887 139.7343,1.0907 139.5503,1.0087 C139.5273,0.9977 139.5013,0.9907 139.4773,0.9817 C139.3113,0.9117 139.1413,0.8587 138.9683,0.8167 C138.9233,0.8047 138.8773,0.7927 138.8303,0.7837 C138.6323,0.7437 138.4313,0.7157 138.2293,0.7097 L138.2243,0.7097 C138.0183,0.7047 137.8113,0.7237 137.6043,0.7547 C137.5553,0.7637 137.5073,0.7737 137.4603,0.7827 C137.2833,0.8187 137.1103,0.8657 136.9383,0.9297 C136.9123,0.9397 136.8833,0.9417 136.8583,0.9517 C136.4043,1.1317 126.6023,5.0427 121.0933,11.2237 C117.1273,10.4187 108.3933,8.8777 99.7753,8.8777 C91.3093,8.8777 83.3473,10.3647 79.5903,11.1887 C74.0773,5.0277 64.3113,1.1317 63.8593,0.9517 C63.8313,0.9417 63.8013,0.9387 63.7743,0.9287 C63.6093,0.8667 63.4423,0.8217 63.2723,0.7857 C63.2133,0.7747 63.1553,0.7627 63.0953,0.7527 C62.9003,0.7247 62.7033,0.7047 62.5063,0.7087 C62.4733,0.7097 62.4423,0.7157 62.4093,0.7177 C62.2423,0.7267 62.0763,0.7467 61.9133,0.7797 C61.8453,0.7917 61.7823,0.8077 61.7163,0.8237 C61.5723,0.8607 61.4303,0.9077 61.2923,0.9617 C61.2443,0.9817 61.1953,0.9947 61.1493,1.0167 C60.9773,1.0927 60.8113,1.1867 60.6523,1.2907 C60.5943,1.3287 60.5423,1.3717 60.4873,1.4137 C60.4263,1.4587 60.3643,1.4977 60.3063,1.5477 L30.0143,27.4147 C29.9263,27.4897 29.8543,27.5747 29.7773,27.6567 C29.7223,27.7117 29.6653,27.7607 29.6153,27.8207 C29.4773,27.9827 29.3563,28.1537 29.2523,28.3337 C29.2373,28.3617 29.2273,28.3907 29.2133,28.4177 C29.1273,28.5757 29.0513,28.7397 28.9933,28.9077 C28.9663,28.9787 28.9523,29.0537 28.9303,29.1257 C28.8933,29.2587 28.8603,29.3937 28.8393,29.5307 C28.8263,29.6097 28.8203,29.6897 28.8133,29.7707 C28.7993,29.9137 28.7963,30.0577 28.8013,30.2007 C28.8023,30.2457 28.7953,30.2887 28.7983,30.3337 C28.8393,30.8777 32.9723,85.0107 42.6783,129.2117 L37.0063,162.9177 C36.9453,163.2747 36.9413,163.6387 36.9923,163.9947 L38.7033,175.9107 C38.1823,176.6647 37.4563,177.7447 36.5833,179.1197 C30.8443,179.0317 12.0503,176.3237 8.1503,145.1957 C7.9363,143.4927 6.5183,142.1967 4.8023,142.1357 C3.1063,142.1037 1.5833,143.2717 1.2523,144.9537 C1.1703,145.3657 -6.3697,185.7247 25.0163,202.7247 C23.2053,207.9437 21.7843,213.5517 21.2043,219.2427 C16.8833,220.8567 12.6103,223.6577 9.8743,228.4887 C7.1293,233.3317 7.0643,238.4837 9.6903,242.9907 C13.6923,249.8577 22.7213,253.4497 29.5743,253.4497 C34.2083,253.4497 37.5833,252.9387 39.9843,252.3127 C42.4363,260.3757 51.5453,264.6827 60.1953,264.6827 C65.8443,264.6827 70.7343,262.6037 74.7273,258.5017 C77.4243,255.7307 79.6633,252.0327 81.4433,247.4417 C85.0983,248.4577 91.4653,249.7907 99.7623,249.7907 C108.3613,249.7907 115.3503,248.3667 119.2443,247.3557 C121.0293,251.9867 123.2763,255.7127 125.9913,258.5017 C129.9843,262.6037 134.8733,264.6827 140.5233,264.6827 C149.1723,264.6827 158.2803,260.3757 160.7333,252.3127 C163.1323,252.9387 166.5083,253.4497 171.1433,253.4497 C177.9953,253.4497 187.0263,249.8577 191.0273,242.9907 C193.6543,238.4837 193.5893,233.3317 190.8433,228.4887 L190.8433,228.4887 Z" id="Fill-53" fill="#016182"></path>
                <path d="M105.6504,161.5039 C105.6504,159.5639 104.4914,158.1909 102.7874,158.1909 C101.1304,158.1909 99.9714,159.5639 99.9714,161.5039 C99.9714,163.4909 101.1304,164.8389 102.7874,164.8389 C104.4914,164.8389 105.6504,163.4669 105.6504,161.5039 M109.1284,161.6209 C109.1284,165.5019 106.8094,168.0809 103.2384,168.0809 C101.5814,168.0809 100.2334,167.4179 99.3344,166.2349 L99.3344,170.8489 C99.3344,171.7759 98.5824,172.5279 97.6554,172.5279 L96.9214,172.5279 C95.9934,172.5279 95.2414,171.7759 95.2414,170.8489 L95.2414,156.8659 C95.2414,155.9389 95.9934,155.1859 96.9214,155.1859 L97.6554,155.1859 C98.5824,155.1859 99.3344,155.9389 99.3344,156.8659 C100.2334,155.7069 101.5344,155.0439 103.1424,155.0439 C106.7394,155.0439 109.1284,157.6699 109.1284,161.6209" id="Fill-55" fill="#FFEBC0"></path>
                <path d="M228.5283,251.5586 C224.4733,251.5586 221.3353,248.8546 220.7173,244.8306 L207.5593,159.0176 L205.7953,157.9496 C202.2743,155.8136 199.0673,153.4226 196.2623,150.8406 C194.0123,148.7706 191.4143,146.8096 188.3173,144.8446 L172.3583,134.7236 L181.1613,128.9266 L171.8573,120.7576 L179.1033,113.5656 C181.3333,111.3546 183.1073,108.6316 184.3803,105.4756 C185.7633,102.0386 187.6573,98.7116 190.0083,95.5876 L191.2783,93.8996 L190.7633,91.8496 C187.8443,80.2536 188.8883,70.5486 189.3743,67.3566 C200.8873,67.8176 209.4103,71.8276 214.5873,75.1686 L216.4213,76.3526 L218.4753,75.6166 C227.0143,72.5586 236.1623,71.0076 245.6623,71.0076 C255.1603,71.0076 264.3063,72.5586 272.8483,75.6166 L274.9033,76.3526 L276.7363,75.1686 C281.9153,71.8276 290.4353,67.8176 301.9503,67.3566 C302.4343,70.5456 303.4783,80.2516 300.5603,91.8496 L300.0453,93.8996 L301.3153,95.5876 C303.6673,98.7116 305.5593,102.0386 306.9433,105.4746 C308.2173,108.6336 309.9933,111.3566 312.2203,113.5656 L319.4663,120.7576 L310.1643,128.9266 L318.9653,134.7236 L304.1733,144.1066 C300.7533,146.2746 297.4463,148.7716 294.0593,151.7426 C292.7523,152.8866 291.2903,154.0436 289.7143,155.1786 L286.9893,157.1406 L288.0373,159.9906 L287.0533,166.3996 L292.8733,174.0846 C295.4843,177.5346 296.7613,181.8106 296.4663,186.1256 L294.7953,210.5436 L299.0583,210.9716 C300.0403,211.0696 301.0573,211.1196 302.0853,211.1196 C307.3663,211.1196 317.3403,209.7336 324.7893,200.4616 C336.1303,186.3506 331.0653,164.1306 330.8443,163.1926 C330.1613,160.3376 331.9173,157.4696 334.7553,156.7856 C335.1593,156.6866 335.5783,156.6366 335.9933,156.6366 C338.4513,156.6366 340.5733,158.2976 341.1523,160.6746 C341.4293,161.8126 347.7823,188.7886 333.0603,207.1086 C322.8643,219.7966 309.2183,221.6926 301.9933,221.6926 C300.8393,221.6926 299.6743,221.6446 298.5283,221.5526 L294.0673,221.1926 L293.1263,234.9636 C292.8363,239.3846 289.1433,242.8386 284.7193,242.8386 L275.6903,242.8386 L274.7543,246.0056 C273.7413,249.4296 270.8523,251.5576 267.2163,251.5586 L267.0393,251.5566 C263.4393,251.4886 260.5943,249.3656 259.6113,246.0146 L258.6793,242.8386 L237.0653,242.8386 L236.1333,246.0146 C235.1503,249.3656 232.3053,251.4886 228.7083,251.5566 L228.5283,251.5586 Z" id="Fill-57" fill="#FFE2A1"></path>
                <path d="M251.6533,191.3926 C251.6533,189.6746 250.6273,188.4586 249.1193,188.4586 C247.6533,188.4586 246.6273,189.6746 246.6273,191.3926 C246.6273,193.1516 247.6533,194.3446 249.1193,194.3446 C250.6273,194.3446 251.6533,193.1296 251.6533,191.3926 M254.7313,191.4966 C254.7313,194.9316 252.6793,197.2136 249.5173,197.2136 C248.0503,197.2136 246.8573,196.6276 246.0613,195.5796 L246.0613,199.6636 C246.0613,200.4856 245.3963,201.1516 244.5763,201.1516 L243.9253,201.1516 C243.1043,201.1516 242.4383,200.4856 242.4383,199.6636 L242.4383,187.2876 C242.4383,186.4666 243.1043,185.8006 243.9253,185.8006 L244.5763,185.8006 C245.3963,185.8006 246.0613,186.4666 246.0613,187.2876 C246.8573,186.2616 248.0093,185.6746 249.4333,185.6746 C252.6173,185.6746 254.7313,187.9986 254.7313,191.4966" id="Fill-59" fill="#FAAF4C"></path>
                <path d="M274.4766,115.0039 C277.2436,115.0039 279.4846,112.7619 279.4846,109.9959 C279.4846,107.2299 277.2436,104.9869 274.4766,104.9869 C271.7106,104.9869 269.4686,107.2299 269.4686,109.9959 C269.4686,112.7619 271.7106,115.0039 274.4766,115.0039" id="Fill-61" fill="#016182"></path>
                <path d="M220.7139,115.0039 C223.4799,115.0039 225.7219,112.7619 225.7219,109.9959 C225.7219,107.2299 223.4799,104.9869 220.7139,104.9869 C217.9479,104.9869 215.7059,107.2299 215.7059,109.9959 C215.7059,112.7619 217.9479,115.0039 220.7139,115.0039" id="Fill-63" fill="#016182"></path>
                <path d="M243.9316,122.3652 L250.5486,122.3652 C253.9436,122.3652 255.7256,125.7352 253.4416,127.8372 L250.1336,130.8802 C248.5826,132.3082 245.8986,132.3082 244.3476,130.8802 L241.0376,127.8372 C238.7546,125.7352 240.5376,122.3652 243.9316,122.3652" id="Fill-65" fill="#016182"></path>
                <path d="M247.2402,130.2236 C247.2402,130.2236 248.5852,141.6086 238.5122,142.2716 C233.6282,142.5936 230.0752,138.8816 228.9522,137.0766" id="Stroke-67" stroke="#016182" stroke-width="7" stroke-linecap="round" stroke-linejoin="round"></path>
                <path d="M247.3604,130.2236 C247.3604,130.2236 246.0144,141.6086 256.0884,142.2716 C260.9714,142.5936 264.5244,138.8816 265.6484,137.0766" id="Stroke-69" stroke="#016182" stroke-width="7" stroke-linecap="round" stroke-linejoin="round"></path>
            </g>
            <g id="Group-96" transform="translate(237.000000, 143.689000)">
                <g id="Group-74" transform="translate(128.000000, 86.000000)">
                    <mask id="mask-12" fill="white">
                        <use xlink:href="#path-11"></use>
                    </mask>
                    <g id="Clip-73"></g>
                    <path d="M44.0859,1.4072 L39.4429,0.7442 C39.4429,0.7442 45.6329,27.0502 36.5689,44.7332 C27.5069,62.4172 0.3169,61.7542 0.3169,61.7542 L0.3169,68.1652 L2.0859,67.7222 L10.4849,67.7222 L24.8549,62.8592 L38.1159,55.3452 L44.9969,36.9962 L48.0649,14.8912 L44.0859,1.4072 Z" id="Fill-72" fill="#DD7800" mask="url(#mask-12)"></path>
                </g>
                <path d="M68.709,175.0537 C68.784,174.2807 66.747,174.7087 66.747,174.7087 C66.747,174.7087 63.218,177.2647 60.564,177.2647 C57.913,177.2647 54.044,174.7227 54.044,174.7227 C54.044,174.7227 49.292,173.1747 49.07,172.8447 C49.07,172.8447 50.507,176.7117 51.28,177.6997 C52.055,178.6897 53.271,180.0287 54.708,181.0237 C56.144,182.0177 59.128,182.5707 60.708,182.5577 C62.288,182.5437 65.648,181.9077 66.313,181.6867 C66.976,181.4637 68.413,179.1437 68.711,178.5907 C69.01,178.0377 68.634,175.8277 68.709,175.0537" id="Fill-75" fill="#DD7800"></path>
                <path d="M107.6143,175.0537 C107.6883,174.2807 105.6513,174.7087 105.6513,174.7087 C105.6513,174.7087 102.1233,177.2647 99.4693,177.2647 C96.8173,177.2647 92.9483,174.7227 92.9483,174.7227 C92.9483,174.7227 88.1963,173.1747 87.9753,172.8447 C87.9753,172.8447 89.4133,176.7117 90.1853,177.6997 C90.9603,178.6897 92.1763,180.0287 93.6123,181.0237 C95.0493,182.0177 98.0323,182.5707 99.6123,182.5577 C101.1923,182.5437 104.5543,181.9077 105.2183,181.6867 C105.8813,181.4637 107.3173,179.1437 107.6163,178.5907 C107.9153,178.0377 107.5393,175.8277 107.6143,175.0537" id="Fill-77" fill="#DD7800"></path>
                <path d="M87.9756,169.417 C87.7536,168.644 88.0856,165.438 87.9756,163.67 C87.8656,161.901 87.6436,158.364 87.5336,154.165 C87.4226,149.965 84.6596,151.844 84.3286,151.844 C83.9966,151.844 76.1496,151.954 73.9386,152.176 C71.7286,152.396 71.7286,156.154 71.7286,156.154 C71.7286,156.154 71.1746,172.181 71.1746,172.844 C71.1746,173.507 72.1696,174.17 72.1696,174.17 C72.1696,174.17 76.3706,174.612 76.7026,174.612 C76.7026,174.612 84.6596,175.827 86.4656,175.606 C88.2736,175.386 87.5336,173.617 87.5336,173.285 C87.5336,172.954 88.1966,170.191 87.9756,169.417" id="Fill-79" fill="#DD7800"></path>
                <path d="M113.0654,150.4072 L112.2914,150.9232 C112.2914,150.9232 110.5224,163.5592 109.7494,165.2172 C108.9744,166.8752 109.1974,172.5112 109.1974,173.3952 C109.1974,174.2812 119.1434,174.1702 119.4084,174.1702 L122.9014,171.4072 C122.9014,171.4072 124.0064,170.0812 124.2274,169.7492 C124.4494,169.4172 126.7394,165.1072 126.7394,165.1072 L126.3284,150.4072 L113.0654,150.4072 Z" id="Fill-81" fill="#DD7800"></path>
                <path d="M119.4082,100.1543 C119.4082,100.1543 120.9762,90.7513 120.5072,90.8703 C120.0372,90.9893 107.7332,93.5223 107.7332,93.5223 L84.5492,100.0083 C84.5492,100.0083 67.1602,98.9753 66.4232,98.8293 C65.6852,98.6803 52.7182,96.0283 51.9812,95.8813 C51.2442,95.7333 41.9602,92.0503 41.5172,91.9013 C41.0762,91.7553 38.1282,92.4913 38.1282,92.4913 L39.8962,101.1853 C39.8962,101.1853 53.8682,109.8813 79.5972,109.8813 C105.3282,109.8813 119.4082,100.1543 119.4082,100.1543" id="Fill-83" fill="#DD7800"></path>
                <g id="Group-87" transform="translate(0.000000, 51.000000)">
                    <mask id="mask-14" fill="white">
                        <use xlink:href="#path-13"></use>
                    </mask>
                    <g id="Clip-86"></g>
                    <path d="M11.4541,8.1123 L27.0641,6.7163 C28.2711,6.6083 28.3561,4.8783 27.1671,4.6513 L5.8541,0.5963 L0.7701,0.1553 L4.8961,3.7653 L11.4541,8.1123 Z" id="Fill-85" fill="#DD7800" mask="url(#mask-14)"></path>
                </g>
                <path d="M46.4854,91.4834 C40.3404,88.7784 34.0774,81.2234 30.1654,75.8084 C27.3724,71.9414 23.2774,69.2154 18.6244,68.1694 L7.6164,65.6964 L1.0644,64.4184 C1.0644,64.4184 7.0344,70.0174 7.4014,70.3124 C7.7704,70.6074 12.7804,73.7754 14.4014,75.0284 C16.0224,76.2814 20.6654,78.2704 22.8764,79.5234 C25.0864,80.7754 29.4334,84.0184 31.5704,85.6394 C33.7084,87.2604 39.3814,90.0604 39.3814,90.0604 L46.4854,91.4834 Z" id="Fill-88" fill="#DD7800"></path>
                <path d="M146.001,56.6807 L154.106,51.9647 L148.876,51.6797 L130.438,57.2647 C129.307,57.6087 129.526,59.2707 130.708,59.3077 L141.255,59.6297 L146.001,56.6807 Z" id="Fill-90" fill="#DD7800"></path>
                <path d="M145.1172,72.5967 L152.1902,64.4177 L147.7082,65.6967 L131.1752,71.1727 C127.2662,72.4677 123.8852,74.9737 121.4752,78.3117 C118.3392,82.6597 113.2222,88.7647 107.2242,92.1507 L122.7182,87.4807 L145.1172,72.5967 Z" id="Fill-92" fill="#DD7800"></path>
                <path d="M54.4863,4.5127 L60.4153,21.1147 C61.4453,23.9987 65.4863,24.1057 66.6663,21.2807 L68.5183,16.8437 C69.2463,15.1027 71.7453,15.1987 72.3383,16.9897 L75.4863,26.4967 C76.4963,29.5497 80.8073,29.5677 81.8423,26.5217 L84.0953,19.8897 C84.7613,17.9307 87.5853,18.0937 88.0203,20.1167 C88.6683,23.1147 92.6673,23.7417 94.2013,21.0867 L103.7813,4.5127 L88.4733,0.7547 L63.9913,0.2127 L56.6963,2.3027 L54.4863,4.5127 Z" id="Fill-94" fill="#DD7800"></path>
            </g>
            <g id="Group-101" transform="translate(235.000000, 136.689000)">
                <path d="M165.6826,144.001 C156.4356,155.509 144.4326,157.923 135.9926,157.923 C134.7106,157.923 133.5706,157.863 132.5956,157.782 L133.0776,150.732 C138.4316,151.197 151.0686,150.895 160.1676,139.57 C172.1296,124.686 166.6196,101.007 166.5626,100.772 C166.1096,98.875 167.2786,96.96 169.1676,96.503 C171.0566,96.044 172.9756,97.209 173.4346,99.093 C173.7036,100.198 179.8696,126.348 165.6826,144.001 L165.6826,144.001 Z M128.7016,124.005 L125.3616,172.852 C125.1316,176.338 122.2156,179.07 118.7206,179.07 L114.0776,179.07 L124.4006,111.747 L125.4626,113.151 C127.8176,116.261 128.9676,120.116 128.7016,124.005 L128.7016,124.005 Z M101.0726,187.788 C98.5846,187.741 95.5216,186.282 95.0696,182.329 L92.3156,158.234 C92.1376,156.671 90.8146,155.491 89.2406,155.491 L74.5036,155.491 C72.9316,155.491 71.6086,156.671 71.4296,158.234 L68.6766,182.329 C68.2246,186.282 65.1606,187.741 62.6726,187.788 C60.2206,187.853 57.0696,186.496 56.4656,182.564 L44.3256,103.384 C54.6246,108.195 66.4856,110.849 78.7976,110.968 L78.7976,118.214 C73.1206,119.605 68.9056,124.71 68.9056,130.814 C68.9056,137.987 74.7196,143.802 81.8916,143.802 C89.0646,143.802 94.8776,137.987 94.8776,130.814 C94.8776,124.71 90.6616,119.605 84.9866,118.214 L84.9866,110.807 C97.5996,110.043 109.6416,106.597 119.7996,100.903 L107.4386,181.522 C107.4336,181.547 107.4316,181.574 107.4266,181.601 L107.2796,182.564 C106.6766,186.497 103.5476,187.85 101.0726,187.788 L101.0726,187.788 Z M75.2786,179.07 L77.2666,161.681 L86.4796,161.681 L88.4656,179.07 L75.2786,179.07 Z M23.2656,81.353 L9.6166,72.696 L14.6806,69.36 C15.4876,68.829 15.9986,67.952 16.0656,66.989 C16.1336,66.026 15.7456,65.087 15.0216,64.45 L8.4486,58.68 L14.3506,52.821 C16.7506,50.438 18.6586,47.516 20.0196,44.136 C21.5126,40.432 23.6176,36.87 26.2746,33.554 C26.8966,32.778 27.1076,31.75 26.8426,30.792 C24.0196,20.595 24.4606,11.498 24.9296,7.214 C35.8836,7.989 43.8966,12.042 48.8166,15.448 C49.6556,16.029 50.7266,16.16 51.6786,15.796 C60.4266,12.466 69.8406,10.776 79.6616,10.776 C89.4816,10.776 98.8976,12.466 107.6466,15.796 C108.5986,16.16 109.6686,16.029 110.5086,15.448 C115.4286,12.042 123.4426,7.988 134.4016,7.212 C134.8726,11.484 135.3186,20.546 132.4826,30.792 C132.2176,31.75 132.4286,32.778 133.0496,33.554 C135.7066,36.87 137.8116,40.432 139.3046,44.136 C140.6656,47.517 142.5736,50.439 144.9746,52.822 L150.8756,58.68 L144.3036,64.45 C143.5786,65.087 143.1916,66.026 143.2586,66.989 C143.3256,67.952 143.8366,68.829 144.6436,69.36 L149.7076,72.696 L137.2246,80.613 C133.7306,82.829 130.3516,85.38 126.8946,88.411 C115.0126,98.824 97.7956,104.796 79.6616,104.796 C60.9506,104.796 43.3796,98.507 31.4586,87.54 C29.1316,85.397 26.4506,83.373 23.2656,81.353 L23.2656,81.353 Z M179.4486,97.626 C178.1806,92.436 172.9176,89.236 167.7156,90.487 C162.5136,91.745 159.2956,97.004 160.5406,102.205 C160.5906,102.414 165.3236,123.274 155.3426,135.693 C147.9016,144.956 137.5366,144.977 133.4986,144.572 L134.8756,124.427 C135.2446,119.047 133.6546,113.716 130.3986,109.415 L125.7066,103.222 L126.4626,98.293 C126.5446,97.759 126.4716,97.24 126.2976,96.767 C127.9226,95.596 129.4906,94.366 130.9746,93.065 C134.1886,90.247 137.3176,87.884 140.5396,85.839 L157.0666,75.357 C157.9536,74.796 158.4946,73.821 158.5026,72.772 C158.5126,71.721 157.9876,70.737 157.1106,70.159 L151.4376,66.423 L157.4506,61.144 C158.0956,60.577 158.4756,59.77 158.5006,58.913 C158.5286,58.056 158.1976,57.226 157.5876,56.621 L149.3346,48.429 C147.5346,46.643 146.0906,44.419 145.0446,41.823 C143.5146,38.022 141.4326,34.363 138.8486,30.93 C142.5966,16.035 140.2016,3.904 140.0946,3.378 C139.7996,1.936 138.5296,0.902 137.0626,0.902 C137.0416,0.902 137.0226,0.902 137.0016,0.903 C124.0926,1.149 114.4676,5.498 108.3386,9.454 C99.3166,6.225 89.6766,4.587 79.6616,4.587 C69.6466,4.587 60.0086,6.224 50.9856,9.454 C44.8566,5.498 35.2306,1.149 22.3216,0.903 C22.3016,0.902 22.2826,0.902 22.2626,0.902 C20.7946,0.902 19.5256,1.936 19.2306,3.378 C19.1226,3.904 16.7286,16.035 20.4766,30.93 C17.8926,34.363 15.8106,38.022 14.2796,41.823 C13.2336,44.419 11.7896,46.642 9.9896,48.429 L1.7356,56.621 C1.1256,57.226 0.7956,58.056 0.8226,58.913 C0.8486,59.77 1.2296,60.577 1.8726,61.144 L7.8866,66.423 L2.2136,70.159 C1.3356,70.737 0.8126,71.721 0.8216,72.772 C0.8296,73.821 1.3706,74.796 2.2566,75.358 L19.9496,86.579 C22.8206,88.4 25.2136,90.203 27.2686,92.096 C30.3596,94.938 33.7976,97.483 37.5016,99.73 L50.3476,183.5 C51.2996,189.704 56.2876,193.98 62.5286,193.98 C62.6166,193.98 62.7036,193.98 62.7916,193.978 C68.3776,193.87 72.8706,190.386 74.3746,185.259 L89.3696,185.259 C90.8726,190.386 95.3676,193.87 100.9536,193.978 C101.0406,193.98 101.1276,193.98 101.2156,193.98 C106.8446,193.98 111.4456,190.494 112.9936,185.259 L118.7206,185.259 C125.4656,185.259 131.0956,179.987 131.5366,173.266 L132.1726,163.959 C133.2946,164.05 134.5716,164.113 135.9926,164.113 C144.0086,164.113 159.1566,162.003 170.5066,147.878 C186.5836,127.872 179.7456,98.853 179.4486,97.626 L179.4486,97.626 Z" id="Fill-97" fill="#016182"></path>
                <path d="M85.832,128.4492 L85.817,128.4582 C85.27,128.7882 84.587,128.7532 84.07,128.3822 C83.598,128.0442 83.025,127.8542 82.362,127.8542 C80.881,127.8542 79.865,129.0692 79.865,130.8592 C79.865,132.6942 80.881,133.8872 82.362,133.8872 C83.063,133.8872 83.661,133.7022 84.134,133.3262 C84.645,132.9202 85.352,132.8662 85.915,133.1972 C86.908,133.7802 86.983,135.2142 86.032,135.8632 C85.019,136.5572 83.702,136.9372 82.163,136.9372 C78.495,136.9372 76.019,134.5062 76.019,130.8822 C76.019,127.2132 78.516,124.7602 82.208,124.7602 C83.644,124.7602 84.908,125.1182 85.913,125.7812 C86.875,126.4172 86.818,127.8532 85.832,128.4492" id="Fill-99" fill="#FFEBC0"></path>
            </g>
        </g>
    </g>
</svg>