<?xml version="1.0" encoding="UTF-8" standalone="no"?>
<svg width="311px" height="368px" viewBox="0 0 311 368" version="1.1" xmlns="http://www.w3.org/2000/svg" xmlns:xlink="http://www.w3.org/1999/xlink">
    <!-- Generator: Sketch 40.1 (33804) - http://www.bohemiancoding.com/sketch -->
    <title>contract</title>
    <desc>Created with Sketch.</desc>
    <defs></defs>
    <g id="Page-1" stroke="none" stroke-width="1" fill="none" fill-rule="evenodd">
        <g id="contract" transform="translate(0.000000, 1.000000)">
            <g id="Page-1">
                <g id="contract">
                    <polygon id="Fill-1" fill-opacity="0.1" fill="#000000" points="10.2321 10.2307 10.2321 366.2307 310.2311 366.2307 310.2311 50.2297 270.2321 10.2307"></polygon>
                    <polygon id="Fill-2" fill="#DFF1FA" points="0 -0.0005 0 355.9995 300 355.9995 300 39.9995 260 39.9995 260 -0.0005"></polygon>
                    <polygon id="Fill-3" fill="#FFFFFF" points="260.0001 -0.0005 260.0001 39.9995 300.0001 39.9995"></polygon>
                    <polygon id="Fill-4" fill="#99C8EB" points="252.4848 270.9994 244.5008 274.3564 236.5148 270.9994 236.5118 270.9994 231.2758 277.8994 222.6788 278.9864 221.5928 287.5814 214.6928 292.8194 218.0498 300.8064 214.6928 308.7954 221.5928 314.0324 222.6788 322.6264 231.2758 323.7134 236.5128 330.6134 244.5008 327.2574 252.4868 330.6134 257.7248 323.7134 266.3218 322.6264 267.4068 314.0324 274.3068 308.7954 270.9508 300.8064 274.3068 292.8194 267.4068 287.5814 266.3218 278.9864 257.7248 277.8994 252.4878 270.9994"></polygon>
                    <polygon id="Fill-5" fill="#99C8EB" points="31.5 57.83 185 57.83 185 36.833 31.5 36.833"></polygon>
                    <polygon id="Fill-6" fill="#99C8EB" points="31.5 108 240.5 108 240.5 96.333 31.5 96.333"></polygon>
                    <polygon id="Fill-7" fill="#99C8EB" points="31.5 129.573 103.5 129.573 103.5 117.906 31.5 117.906"></polygon>
                    <polygon id="Fill-8" fill="#99C8EB" points="116 129.573 171 129.573 171 117.906 116 117.906"></polygon>
                    <polygon id="Fill-9" fill="#99C8EB" points="179 129.573 214.689 129.573 214.689 117.906 179 117.906"></polygon>
                    <polygon id="Fill-10" fill="#99C8EB" points="31.5 151.148 141.5 151.148 141.5 139.482 31.5 139.482"></polygon>
                    <polygon id="Fill-11" fill="#99C8EB" points="153.5 151.148 230 151.148 230 139.482 153.5 139.482"></polygon>
                    <polygon id="Fill-12" fill="#99C8EB" points="31.5 172.721 68.5 172.721 68.5 161.054 31.5 161.054"></polygon>
                    <polygon id="Fill-13" fill="#99C8EB" points="82 172.721 128 172.721 128 161.054 82 161.054"></polygon>
                    <polygon id="Fill-14" fill="#99C8EB" points="137.001 172.721 239.5 172.721 239.5 161.054 137.001 161.054"></polygon>
                    <polygon id="Fill-15" fill="#99C8EB" points="31.5 194.295 114.499 194.295 114.499 182.629 31.5 182.629"></polygon>
                    <polygon id="Fill-16" fill="#99C8EB" points="124.5 194.295 170 194.295 170 182.629 124.5 182.629"></polygon>
                    <polygon id="Fill-17" fill="#99C8EB" points="179 194.295 224.5 194.295 224.5 182.629 179 182.629"></polygon>
                    <polygon id="Fill-18" fill="#99C8EB" points="31.5 215.87 88.5 215.87 88.5 204.202 31.5 204.202"></polygon>
                    <polygon id="Fill-19" fill="#99C8EB" points="96 215.87 129.5 215.87 129.5 204.202 96 204.202"></polygon>
                    <polygon id="Fill-20" fill="#99C8EB" points="136.75 215.87 210.25 215.87 210.25 204.202 136.75 204.202"></polygon>
                    <polygon id="Fill-21" fill="#99C8EB" points="31.5 237.444 167 237.444 167 225.778 31.5 225.778"></polygon>
                    <polygon id="Fill-22" fill="#99C8EB" points="174.5 237.444 229 237.444 229 225.778 174.5 225.778"></polygon>
                    <polygon id="Fill-23" fill="#99C8EB" points="31.5 259.017 52.5 259.017 52.5 247.351 31.5 247.351"></polygon>
                    <polygon id="Fill-24" fill="#99C8EB" points="59.5 259.017 118 259.017 118 247.351 59.5 247.351"></polygon>
                    <polygon id="Fill-25" fill="#99C8EB" points="128 259.017 158.5 259.017 158.5 247.351 128 247.351"></polygon>
                    <polygon id="Fill-26" fill="#99C8EB" points="163.75 259.017 224.5 259.017 224.5 247.351 163.75 247.351"></polygon>
                    <polygon id="Fill-27" fill="#99C8EB" points="31.5 280.592 149.499 280.592 149.499 268.926 31.5 268.926"></polygon>
                    <polygon id="Fill-28" fill="#99C8EB" points="158.5 280.592 196.845 280.592 196.845 268.926 158.5 268.926"></polygon>
                    <polygon id="Fill-29" fill="#99C8EB" points="31.5 302.166 54.499 302.166 54.499 290.5 31.5 290.5"></polygon>
                    <polygon id="Fill-30" fill="#99C8EB" points="65.5 302.166 124.248 302.166 124.248 290.5 65.5 290.5"></polygon>
                    <polygon id="Fill-31" fill="#99C8EB" points="130.63 302.166 184.62 302.166 184.62 290.5 130.63 290.5"></polygon>
                </g>
            </g>
        </g>
    </g>
</svg>