<?xml version="1.0" encoding="UTF-8" standalone="no"?>
<svg width="509px" height="386px" viewBox="0 0 509 386" version="1.1" xmlns="http://www.w3.org/2000/svg" xmlns:xlink="http://www.w3.org/1999/xlink">
    <!-- Generator: Sketch 40.1 (33804) - http://www.bohemiancoding.com/sketch -->
    <title>vet-greeting</title>
    <desc>Created with Sketch.</desc>
    <defs>
        <rect id="path-1" x="0" y="0" width="281" height="312"></rect>
        <polygon id="path-3" points="29.8447416 12.3478352 29.8447416 0.328979104 0.344966292 0.328979104 0.344966292 12.3478352"></polygon>
        <polygon id="path-5" points="112.977148 49.7675463 0.276202247 49.7675463 0.276202247 0.167928358 112.977148 0.167928358 112.977148 49.7675463"></polygon>
    </defs>
    <g id="Page-1" stroke="none" stroke-width="1" fill="none" fill-rule="evenodd">
        <g id="vet-greeting" transform="translate(0.000000, -1.000000)">
            <g id="Group-3" transform="translate(0.000000, 0.554794)" fill="#FFFFFF">
                <path d="M112.159085,13.7423857 C-5.74833034,64.1403797 -32.6270494,263.545275 40.7212652,320.168654 C125.417939,385.554111 503.648838,372.681514 508.890951,233.147377 C513.594411,107.933574 250.977647,-45.5953576 112.159085,13.7423857" id="Fill-1"></path>
            </g>
            <g id="Group-24" transform="translate(74.000000, 111.000000)">
                <path d="M185.42531,236.449963 L185.42531,199.811778 L165.36913,128.743121 L145.312951,199.811778 L145.312951,236.449963 C145.312951,249.343193 134.863108,259.79487 121.972142,259.79487 L63.9467483,259.79487 C56.9820966,259.79487 51.3354225,265.442536 51.3354225,272.408411 L165.36913,272.408411 L279.402838,272.408411 C279.402838,265.442536 273.756164,259.79487 266.791512,259.79487 L208.766119,259.79487 C195.875153,259.79487 185.42531,249.343193 185.42531,236.449963" id="Fill-4" fill="#565656"></path>
                <path d="M185.42531,236.449963 L185.42531,199.811778 L165.36913,128.743121 L145.312951,199.811778 L145.312951,236.449963 C145.312951,249.343193 134.863108,259.79487 121.972142,259.79487 L63.9467483,259.79487 C56.9820966,259.79487 51.3354225,265.442536 51.3354225,272.408411 L165.36913,272.408411 L279.402838,272.408411 C279.402838,265.442536 273.756164,259.79487 266.791512,259.79487 L208.766119,259.79487 C195.875153,259.79487 185.42531,249.343193 185.42531,236.449963 L185.42531,236.449963 Z" id="Stroke-6" stroke="#353535" stroke-width="6" stroke-linecap="round" stroke-linejoin="round"></path>
                <path d="M314.739535,219.29846 L15.9975798,219.29846 C7.69890562,219.29846 0.90845618,212.506818 0.90845618,204.20554 L0.90845618,15.4540657 C0.90845618,7.15278806 7.69890562,0.361146269 15.9975798,0.361146269 L314.739535,0.361146269 C323.039355,0.361146269 329.829804,7.15278806 329.829804,15.4540657 L329.829804,204.20554 C329.829804,212.506818 323.039355,219.29846 314.739535,219.29846" id="Fill-8" fill="#565656"></path>
                <path d="M314.739535,219.29846 L15.9975798,219.29846 C7.69890562,219.29846 0.90845618,212.506818 0.90845618,204.20554 L0.90845618,15.4540657 C0.90845618,7.15278806 7.69890562,0.361146269 15.9975798,0.361146269 L314.739535,0.361146269 C323.039355,0.361146269 329.829804,7.15278806 329.829804,15.4540657 L329.829804,204.20554 C329.829804,212.506818 323.039355,219.29846 314.739535,219.29846 L314.739535,219.29846 Z" id="Stroke-10" stroke="#353535" stroke-width="6" stroke-linecap="round" stroke-linejoin="round"></path>
                <polygon id="Fill-12" fill="#32A2DB" points="18.0991236 202.10443 312.638449 202.10443 312.638449 17.5551761 18.0991236 17.5551761"></polygon>
            </g>
            <g id="Group-21" transform="translate(100.000000, 1.000000)">
                <mask id="mask-2" fill="white">
                    <use xlink:href="#path-1"></use>
                </mask>
                <g id="Mask"></g>
                <g mask="url(#mask-2)" id="Group-20">
                    <g transform="translate(18.000000, 39.000000)">
                        <g>
                            <path d="M175.526431,51.1771893 C155.888566,2.31404896 101.090499,0.0845564179 91.8062067,0.0845564179 C82.7522742,0.0845564179 27.7238472,2.31404896 8.08483596,51.1771893 C-13.2927596,104.373225 20.0784315,198.942682 20.0784315,198.942682 L74.5911281,198.942682 L109.021285,198.942682 L163.532836,198.942682 C163.532836,198.942682 196.905173,104.373225 175.526431,51.1771893" id="Fill-15" fill="#005870"></path>
                            <path d="M175.526431,51.1771893 C155.888566,2.31404896 101.090499,0.0845564179 91.8062067,0.0845564179 C82.7522742,0.0845564179 27.7238472,2.31404896 8.08483596,51.1771893 C-13.2927596,104.373225 20.0784315,198.942682 20.0784315,198.942682 L74.5911281,198.942682 L109.021285,198.942682 L163.532836,198.942682 C163.532836,198.942682 196.905173,104.373225 175.526431,51.1771893 L175.526431,51.1771893 Z" id="Stroke-16" stroke="#003E4C" stroke-width="6" stroke-linecap="round" stroke-linejoin="round"></path>
                            <g id="Group-18" transform="translate(2.000000, 15.000000)">
                                <path d="M20.7972472,136.3425 C20.7972472,136.3425 26.2009551,165.275467 37.5917191,182.870691" id="Fill-17" fill="#005870"></path>
                                <path d="M20.7972472,136.3425 C20.7972472,136.3425 26.2009551,165.275467 37.5917191,182.870691" id="Stroke-18" stroke="#003E4C" stroke-width="4" stroke-linecap="round" stroke-linejoin="round"></path>
                                <path d="M44.7572764,163.415188 C44.7572764,163.415188 47.2064225,175.989755 50.5609618,183.595248" id="Fill-20" fill="#005870"></path>
                                <path d="M44.7572764,163.415188 C44.7572764,163.415188 47.2064225,175.989755 50.5609618,183.595248" id="Stroke-21" stroke="#003E4C" stroke-width="4" stroke-linecap="round" stroke-linejoin="round"></path>
                                <path d="M158.239153,131.272669 C158.239153,131.830901 154.800951,162.693039 147.638029,183.942567" id="Fill-23" fill="#005870"></path>
                                <path d="M158.239153,131.272669 C158.239153,131.830901 154.800951,162.693039 147.638029,183.942567" id="Stroke-24" stroke="#003E4C" stroke-width="4" stroke-linecap="round" stroke-linejoin="round"></path>
                                <path d="M133.724083,161.63423 C133.724083,161.63423 133.711476,172.011401 130.556353,183.942911" id="Fill-26" fill="#005870"></path>
                                <path d="M133.724083,161.63423 C133.724083,161.63423 133.711476,172.011401 130.556353,183.942911" id="Stroke-27" stroke="#003E4C" stroke-width="4" stroke-linecap="round" stroke-linejoin="round"></path>
                                <path d="M206.445613,266.624186 C206.445613,266.624186 209.776085,250.640616 208.153254,240.233643 C206.529276,229.825524 198.978984,228.188652 200.655681,214.129667 C202.331231,200.070682 202.983344,195.901703 209.134288,195.53375 C209.134288,195.53375 213.972984,162.164724 227.267366,163.785547 C240.561748,165.406371 250.001906,179.238395 242.660198,209.86784 C235.316198,240.496139 230.500422,236.511709 226.078894,261.226407" id="Fill-29" fill="#D8B982"></path>
                                <path d="M206.445613,266.624186 C206.445613,266.624186 209.776085,250.640616 208.153254,240.233643 C206.529276,229.825524 198.978984,228.188652 200.655681,214.129667 C202.331231,200.070682 202.983344,195.901703 209.134288,195.53375 C209.134288,195.53375 213.972984,162.164724 227.267366,163.785547 C240.561748,165.406371 250.001906,179.238395 242.660198,209.86784 C235.316198,240.496139 230.500422,236.511709 226.078894,261.226407" id="Stroke-31" stroke="#003E4C" stroke-width="6" stroke-linecap="round" stroke-linejoin="round"></path>
                                <path d="M92.6413483,230.127221 C80.871236,222.779639 72.0957978,206.470529 66.4708989,192.686648 C65.0348764,193.279269 63.464764,193.609395 61.8167191,193.609395 L50.7858202,193.609395 C22.9638876,193.609395 0.406988764,216.169108 0.406988764,243.998219 L0.406988764,264.678051 L83.4968764,264.678051 L83.4968764,247.628451 C83.4968764,241.446624 86.1534607,235.502075 90.9302697,231.578398 C91.5101798,231.10155 92.0809213,230.617824 92.6413483,230.127221" id="Fill-33" fill="#E8E8E8"></path>
                                <path d="M92.6413483,230.127221 C80.871236,222.779639 72.0957978,206.470529 66.4708989,192.686648 C65.0348764,193.279269 63.464764,193.609395 61.8167191,193.609395 L50.7858202,193.609395 C22.9638876,193.609395 0.406988764,216.169108 0.406988764,243.998219 L0.406988764,264.678051 L83.4968764,264.678051 L83.4968764,247.628451 C83.4968764,241.446624 86.1534607,235.502075 90.9302697,231.578398 C91.5101798,231.10155 92.0809213,230.617824 92.6413483,230.127221 L92.6413483,230.127221 Z" id="Stroke-35" stroke="#003E4C" stroke-width="6" stroke-linecap="round" stroke-linejoin="round"></path>
                                <path d="M92.6413483,230.127221 C105.290494,219.057705 113.059685,204.322421 117.631348,192.54795 C113.357663,190.642851 110.374449,186.366123 110.374449,181.384439 L110.374449,156.07712 L92.6573933,148.979424 L92.6573933,148.61835 L92.2069888,148.79946 L91.7577303,148.61835 L91.7577303,148.979424 L74.0395281,156.07712 L74.0395281,181.384439 C74.0395281,186.487627 70.9119101,190.856057 66.4708989,192.686648 C72.0957978,206.470529 80.871236,222.779639 92.6413483,230.127221" id="Fill-37" fill="#D8B982"></path>
                                <path d="M92.6413483,230.127221 C105.290494,219.057705 113.059685,204.322421 117.631348,192.54795 C113.357663,190.642851 110.374449,186.366123 110.374449,181.384439 L110.374449,156.07712 L92.6573933,148.979424 L92.6573933,148.61835 L92.2069888,148.79946 L91.7577303,148.61835 L91.7577303,148.979424 L74.0395281,156.07712 L74.0395281,181.384439 C74.0395281,186.487627 70.9119101,190.856057 66.4708989,192.686648 C72.0957978,206.470529 80.871236,222.779639 92.6413483,230.127221 L92.6413483,230.127221 Z" id="Stroke-39" stroke="#003E4C" stroke-width="6"></path>
                                <path d="M132.673139,193.679432 L121.643387,193.679432 C119.872712,193.679432 118.193724,193.295432 116.67633,192.617987 C112.10696,204.392459 104.335476,219.126596 91.6851843,230.197259 C91.6874764,230.198405 91.6897685,230.199551 91.6920607,230.201844 C91.6897685,230.199551 91.6874764,230.198405 91.6851843,230.197259 C90.9287798,230.858656 90.1563303,231.507444 89.3666899,232.142476 C85.0769596,235.585867 82.5430045,240.760124 82.5430045,246.261067 L82.5430045,264.748088 L90.8027124,264.748088 L91.7023753,264.748088 L183.051971,264.748088 L183.051971,244.067109 C183.051971,216.239145 160.495072,193.679432 132.673139,193.679432" id="Fill-41" fill="#E8E8E8"></path>
                                <path d="M132.673139,193.679432 L121.643387,193.679432 C119.872712,193.679432 118.193724,193.295432 116.67633,192.617987 C112.10696,204.392459 104.335476,219.126596 91.6851843,230.197259 C91.6874764,230.198405 91.6897685,230.199551 91.6920607,230.201844 C91.6897685,230.199551 91.6874764,230.198405 91.6851843,230.197259 C90.9287798,230.858656 90.1563303,231.507444 89.3666899,232.142476 C85.0769596,235.585867 82.5430045,240.760124 82.5430045,246.261067 L82.5430045,264.748088 L90.8027124,264.748088 L91.7023753,264.748088 L183.051971,264.748088 L183.051971,244.067109 C183.051971,216.239145 160.495072,193.679432 132.673139,193.679432 L132.673139,193.679432 Z" id="Stroke-43" stroke="#003E4C" stroke-width="6" stroke-linecap="round" stroke-linejoin="round"></path>
                                <path d="M74.0367775,208.505958 C74.0367775,208.505958 64.8923056,213.091033 63.7462382,221.688048 C63.7462382,221.688048 68.2938337,231.441648 83.497564,236.880693 C109.302418,238.738794 117.63089,224.828824 117.63089,224.828824 C117.650373,219.086018 109.844508,208.822328 109.844508,208.822328" id="Stroke-45" stroke="#003E4C" stroke-width="6" stroke-linecap="round" stroke-linejoin="round"></path>
                                <path d="M50.7863933,193.609509 C50.7863933,193.609509 54.5741461,210.930775 65.1775618,217.168769" id="Stroke-47" stroke="#003E4C" stroke-width="6" stroke-linecap="round" stroke-linejoin="round"></path>
                                <path d="M135.671481,193.653641 C135.671481,193.653641 133.254425,207.990023 115.547683,217.991217" id="Stroke-49" stroke="#003E4C" stroke-width="6" stroke-linecap="round" stroke-linejoin="round"></path>
                                <path d="M97.9855753,250.84064 C97.9855753,252.85578 96.3512831,254.490359 94.3364966,254.490359 C92.3228562,254.490359 90.688564,252.85578 90.688564,250.84064 C90.688564,248.8255 92.3228562,247.192067 94.3364966,247.192067 C96.3512831,247.192067 97.9855753,248.8255 97.9855753,250.84064" id="Fill-51" fill="#003E4C"></path>
                                <path d="M39.1063618,225.412848 C39.1063618,210.224788 51.7898899,197.204322 51.7898899,197.204322 C51.7898899,197.204322 59.6393056,188.350543 71.4827663,186.248287" id="Stroke-53" stroke="#003E4C" stroke-width="6" stroke-linecap="round" stroke-linejoin="round"></path>
                                <path d="M145.021328,239.550352 C151.324699,215.287284 139.672631,199.812657 139.672631,199.812657 C139.672631,199.812657 132.341238,185.990949 111.175665,185.737624" id="Stroke-55" stroke="#003E4C" stroke-width="6" stroke-linecap="round" stroke-linejoin="round"></path>
                                <path d="M152.938591,243.055183 C152.938591,248.319995 148.671782,252.587553 143.407894,252.587553 C138.144007,252.587553 133.876052,248.319995 133.876052,243.055183 C133.876052,237.790371 138.144007,233.522813 143.407894,233.522813 C148.671782,233.522813 152.938591,237.790371 152.938591,243.055183" id="Fill-57" fill="#BABABA"></path>
                                <path d="M152.938591,243.055183 C152.938591,248.319995 148.671782,252.587553 143.407894,252.587553 C138.144007,252.587553 133.876052,248.319995 133.876052,243.055183 C133.876052,237.790371 138.144007,233.522813 143.407894,233.522813 C148.671782,233.522813 152.938591,237.790371 152.938591,243.055183 L152.938591,243.055183 Z" id="Stroke-59" stroke="#003E4C" stroke-width="6" stroke-linecap="round" stroke-linejoin="round"></path>
                                <path d="M31.3704067,265.723104 C31.3704067,265.723104 20.8632607,228.75594 37.1007438,226.320119 C53.3359348,223.884299 54.2917551,246.809672 53.9089685,264.768263" id="Stroke-61" stroke="#003E4C" stroke-width="6" stroke-linecap="round" stroke-linejoin="round"></path>
                                <g id="Group-66" transform="translate(194.022472, 243.584645)">
                                    <path d="M0.279755056,29.2074985 L4.48238427,0.55078209 C4.48238427,0.55078209 29.6958674,-1.3222209 47.6501596,7.25645373 L45.3580247,27.6795224" id="Fill-63" fill="#E8E8E8"></path>
                                    <path d="M0.279755056,29.2074985 L4.48238427,0.55078209 C4.48238427,0.55078209 29.6958674,-1.3222209 47.6501596,7.25645373 L45.3580247,27.6795224" id="Stroke-65" stroke="#003E4C" stroke-width="6" stroke-linecap="round" stroke-linejoin="round"></path>
                                </g>
                                <g id="Group-69" transform="translate(77.123596, 157.614496)">
                                    <mask id="mask-4" fill="white">
                                        <use xlink:href="#path-3"></use>
                                    </mask>
                                    <g id="Clip-68"></g>
                                    <path d="M0.340267416,0.325769552 L0.340267416,8.90902925 C0.340267416,8.90902925 7.93754831,12.3478352 14.9675258,12.3478352 C21.9963573,12.3478352 29.8480652,10.0782233 29.8480652,10.0782233 L29.8480652,0.325769552 L0.340267416,0.325769552 Z" id="Fill-67" fill="#A58450" mask="url(#mask-4)"></path>
                                </g>
                                <path d="M159.454672,80.1798066 C159.454672,123.812523 129.544604,159.185227 92.6481101,159.185227 C55.7516157,159.185227 25.8415483,123.812523 25.8415483,80.1798066 C25.8415483,36.5470901 55.7516157,1.17438567 92.6481101,1.17438567 C129.544604,1.17438567 159.454672,36.5470901 159.454672,80.1798066" id="Fill-71" fill="#D8B982"></path>
                                <path d="M159.454672,80.1798066 C159.454672,123.812523 129.544604,159.185227 92.6481101,159.185227 C55.7516157,159.185227 25.8415483,123.812523 25.8415483,80.1798066 C25.8415483,36.5470901 55.7516157,1.17438567 92.6481101,1.17438567 C129.544604,1.17438567 159.454672,36.5470901 159.454672,80.1798066 L159.454672,80.1798066 Z" id="Stroke-72" stroke="#003E4C" stroke-width="6"></path>
                                <path d="M123.455434,89.2088501 C126.626602,89.2088501 129.196085,86.6389158 129.196085,83.4683367 C129.196085,80.2977576 126.626602,77.7278233 123.455434,77.7278233 C120.285411,77.7278233 117.715928,80.2977576 117.715928,83.4683367 C117.715928,86.6389158 120.285411,89.2088501 123.455434,89.2088501" id="Fill-73" fill="#003E4C"></path>
                                <path d="M61.8397551,89.2088501 C65.0109236,89.2088501 67.5792607,86.6389158 67.5792607,83.4683367 C67.5792607,80.2977576 65.0109236,77.7278233 61.8397551,77.7278233 C58.6697326,77.7278233 56.1002494,80.2977576 56.1002494,83.4683367 C56.1002494,86.6389158 58.6697326,89.2088501 61.8397551,89.2088501" id="Fill-74" fill="#003E4C"></path>
                                <path d="M77.7010989,131.272669 C80.4470764,132.705504 85.2605596,134.312573 93.0469416,134.312573 C100.519301,134.312573 105.029076,132.83274 107.613458,131.446901" id="Stroke-75" stroke="#003E4C" stroke-width="6" stroke-linecap="round" stroke-linejoin="round"></path>
                                <path d="M93.5412404,119.370617 C93.5412404,119.370617 101.983173,117.079226 101.983173,109.70528 C101.983173,102.331334 93.5412404,100.457184 93.5412404,100.457184" id="Stroke-76" stroke="#003E4C" stroke-width="4" stroke-linecap="round" stroke-linejoin="round"></path>
                                <g id="Group-79" transform="translate(28.988764, 25.793600)">
                                    <mask id="mask-6" fill="white">
                                        <use xlink:href="#path-5"></use>
                                    </mask>
                                    <g id="Clip-78"></g>
                                    <path d="M59.4936202,0.167928358 C59.4936202,0.167928358 30.5817775,14.3048597 28.9933281,15.0694209 C27.4037326,15.8339821 9.06665393,27.2966687 7.92058652,28.0600836 C7.12865393,28.5885134 2.87215955,34.2235701 0.316429213,37.6566448 C0.550226966,37.9821851 0.687755056,38.4051582 0.671710112,38.9267104 C0.630451685,40.1119522 0.290069663,41.2433194 0.483755056,42.3861493 C0.546788764,42.7598328 0.585755056,43.0773493 0.607530337,43.3799642 C0.664833708,43.5587821 0.7038,43.7444776 0.707238202,43.9416358 C0.716406742,44.6110567 0.594923596,45.1417791 0.528451685,45.8043224 C0.523867416,45.8501731 0.508968539,45.8902925 0.500946067,45.934997 C0.486047191,46.361409 0.449373034,46.7866746 0.385193258,47.206209 C0.40238427,47.8607284 0.343934831,48.4751284 0.274024719,49.1032836 C0.323305618,49.3176358 0.355395506,49.5319881 0.374878652,49.745194 C13.8663843,50.0065433 73.8435303,48.7043821 112.977148,7.30803582 L59.4936202,0.167928358 Z" id="Fill-77" fill="#A58450" mask="url(#mask-6)"></path>
                                </g>
                                <path d="M122.342946,8.40928955 C107.222879,1.44914627 86.284227,-3.49814925 63.1164742,4.66442985 C16.9150584,20.9402985 19.7332382,68.0714269 19.7332382,68.0714269 C113.996137,65.5897552 146.657912,24.2392597 146.657912,24.2392597 C146.657912,24.2392597 137.375912,15.3293134 122.342946,8.40928955" id="Fill-80" fill="#005870"></path>
                                <path d="M122.342946,8.40928955 C107.222879,1.44914627 86.284227,-3.49814925 63.1164742,4.66442985 C16.9150584,20.9402985 19.7332382,68.0714269 19.7332382,68.0714269 C113.996137,65.5897552 146.657912,24.2392597 146.657912,24.2392597 C146.657912,24.2392597 137.375912,15.3293134 122.342946,8.40928955 L122.342946,8.40928955 Z" id="Stroke-81" stroke="#003E4C" stroke-width="6" stroke-linecap="round" stroke-linejoin="round"></path>
                                <g id="Group-84" transform="translate(42.741573, 30.378675)">
                                    <path d="M0.41751236,21.0223379 C0.41751236,21.0223379 39.9568382,17.0103976 67.8440966,0.00779462687" id="Fill-82" fill="#005870"></path>
                                    <path d="M0.41751236,21.0223379 C0.41751236,21.0223379 39.9568382,17.0103976 67.8440966,0.00779462687" id="Stroke-83" stroke="#003E4C" stroke-width="4" stroke-linecap="round" stroke-linejoin="round"></path>
                                </g>
                                <g id="Group-87" transform="translate(51.910112, 18.915988)">
                                    <path d="M0.80018427,9.36937075 C0.80018427,9.36937075 15.8904539,-0.0139844776 36.1368809,0.569466269" id="Fill-85" fill="#005870"></path>
                                    <path d="M0.80018427,9.36937075 C0.80018427,9.36937075 15.8904539,-0.0139844776 36.1368809,0.569466269" id="Stroke-86" stroke="#003E4C" stroke-width="4" stroke-linecap="round" stroke-linejoin="round"></path>
                                </g>
                            </g>
                        </g>
                    </g>
                </g>
            </g>
            <g id="Group-23" transform="translate(313.000000, 137.000000)">
                <path d="M101.889813,0.286533731 L21.2731393,0.286533731 C16.6384427,0.286533731 12.8483978,4.07839045 12.8483978,8.7139009 L12.8483978,20.9514651 L0.328757303,33.4744501 L12.8483978,45.996289 L12.8483978,58.2338531 C12.8483978,62.8693636 16.6384427,66.6612203 21.2731393,66.6612203 L101.889813,66.6612203 C106.523364,66.6612203 110.315701,62.8693636 110.315701,58.2338531 L110.315701,8.7139009 C110.315701,4.07839045 106.523364,0.286533731 101.889813,0.286533731" id="Fill-14" fill="#4ABC57"></path>
                <g id="Group-16" transform="translate(30.000000, 15.000000)" fill="#FFFFFF">
                    <path d="M30.4388472,0.919001791 L24.7371618,0.919001791 C24.1469371,0.919001791 23.669027,1.39699582 23.669027,1.98732418 L23.669027,15.6095809 L7.88080225,15.6095809 L7.88080225,1.98732418 C7.88080225,1.39699582 7.40289213,0.919001791 6.81266742,0.919001791 L1.11212809,0.919001791 C0.521903371,0.919001791 0.0439932584,1.39699582 0.0439932584,1.98732418 L0.0439932584,35.8137122 C0.0439932584,36.4028943 0.521903371,36.8820346 1.11212809,36.8820346 L6.81266742,36.8820346 C7.40289213,36.8820346 7.88080225,36.4028943 7.88080225,35.8137122 L7.88080225,22.867754 L23.669027,22.867754 L23.669027,35.8137122 C23.669027,36.4028943 24.1469371,36.8820346 24.7371618,36.8820346 L30.4388472,36.8820346 C31.030218,36.8820346 31.506982,36.4028943 31.506982,35.8137122 L31.506982,1.98732418 C31.506982,1.39699582 31.030218,0.919001791 30.4388472,0.919001791" id="Fill-88"></path>
                    <path d="M44.5476247,0.919001791 L38.8459393,0.919001791 C38.2557146,0.919001791 37.7778045,1.39699582 37.7778045,1.98732418 L37.7778045,35.8137122 C37.7778045,36.4028943 38.2557146,36.8820346 38.8459393,36.8820346 L44.5476247,36.8820346 C45.1389955,36.8820346 45.6157596,36.4028943 45.6157596,35.8137122 L45.6157596,1.98732418 C45.6157596,1.39699582 45.1389955,0.919001791 44.5476247,0.919001791" id="Fill-89"></path>
                    <path d="M54.7727236,27.9850412 C53.6438472,27.8841696 52.5791506,28.2028322 51.7723191,28.8745457 C50.9586112,29.5519904 50.4543416,30.5538293 50.3557798,31.6943666 C50.2560719,32.8509516 50.5758247,33.9353218 51.2588809,34.7480263 C51.9350607,35.5549994 52.9321393,36.05248 54.0633079,36.1510591 C54.201982,36.1636681 54.338364,36.1693994 54.4747461,36.1693994 C55.4660944,36.1693994 56.3852404,35.8530293 57.0980944,35.2592621 C57.9140944,34.5783785 58.4218022,33.565077 58.5215101,32.4050531 C58.621218,31.261077 58.2957348,30.185877 57.6069483,29.3800501 C56.9216,28.5799546 55.9164989,28.0836203 54.7727236,27.9850412" id="Fill-90"></path>
                    <path d="M61.9859573,2.14860418 C61.8037326,1.9319594 61.5435753,1.79555343 61.2604966,1.77148179 L53.7629236,1.11925493 C53.4741146,1.09518328 53.1990584,1.1822997 52.9847438,1.36455642 C52.7658449,1.54681313 52.630609,1.80816239 52.6065416,2.09014448 L51.8982719,10.2297982 C51.8948337,10.2676251 51.8936876,10.3065982 51.8948337,10.3444251 L52.1607213,23.1723176 C52.172182,23.7179415 52.5927888,24.1672788 53.1360247,24.2142758 L57.8910584,24.6280788 C57.9220022,24.6315176 57.9529461,24.6326639 57.9838899,24.6326639 C58.4893056,24.6326639 58.9316876,24.2750281 59.0302494,23.7706699 L61.5080472,11.1812012 C61.5160697,11.1433743 61.5218,11.1055475 61.5240921,11.0677206 L62.2323618,2.92806687 C62.2564292,2.64608478 62.168182,2.36524896 61.9859573,2.14860418" id="Fill-91"></path>
                </g>
            </g>
        </g>
    </g>
</svg>