<?xml version="1.0" encoding="UTF-8" standalone="no"?>
<svg width="28px" height="30px" viewBox="0 0 28 30" version="1.1" xmlns="http://www.w3.org/2000/svg" xmlns:xlink="http://www.w3.org/1999/xlink">
    <!-- Generator: Sketch 40.1 (33804) - http://www.bohemiancoding.com/sketch -->
    <title>bell</title>
    <desc>Created with Sketch.</desc>
    <defs></defs>
    <g id="Page-1" stroke="none" stroke-width="1" fill="none" fill-rule="evenodd">
        <path d="M13.9400843,27.4815155 C13.9400843,27.627349 13.8266582,27.740775 13.6808247,27.740775 C12.1090635,27.740775 10.8289694,26.4606809 10.8289694,24.8889197 C10.8289694,24.7430861 10.9423954,24.6296601 11.0882289,24.6296601 C11.2340624,24.6296601 11.3474885,24.7430861 11.3474885,24.8889197 C11.3474885,26.1690138 12.4007306,27.2222559 13.6808247,27.2222559 C13.8266582,27.2222559 13.9400843,27.3356819 13.9400843,27.4815155 L13.9400843,27.4815155 Z M27.1623229,22.814843 C24.7641718,20.7893776 21.9771313,17.1597434 21.9771313,9.33334487 C21.9771313,6.22222991 19.4007392,2.81944793 15.1067524,2.1875027 C15.187771,1.99305802 15.2363822,1.78240961 15.2363822,1.55555748 C15.2363822,0.696760121 14.5396221,0 13.6808247,0 C12.8220274,0 12.1252673,0.696760121 12.1252673,1.55555748 C12.1252673,1.78240961 12.1738784,1.99305802 12.254897,2.1875027 C7.96091025,2.81944793 5.38451818,6.22222991 5.38451818,9.33334487 C5.38451818,17.1597434 2.5974777,20.7893776 0.199326583,22.814843 C0.199326583,23.9491037 1.13914256,24.8889197 2.27340322,24.8889197 L9.53267145,24.8889197 C9.53267145,27.1736447 11.3960997,29.0370729 13.6808247,29.0370729 C15.9655498,29.0370729 17.828978,27.1736447 17.828978,24.8889197 L25.0882462,24.8889197 C26.2225069,24.8889197 27.1623229,23.9491037 27.1623229,22.814843 L27.1623229,22.814843 Z" id="bell" fill="#000000"></path>
    </g>
</svg>