<?xml version="1.0" encoding="UTF-8" standalone="no"?>
<svg width="28px" height="26px" viewBox="0 0 28 26" version="1.1" xmlns="http://www.w3.org/2000/svg" xmlns:xlink="http://www.w3.org/1999/xlink">
    <!-- Generator: Sketch 40.1 (33804) - http://www.bohemiancoding.com/sketch -->
    <title>calendar</title>
    <desc>Created with Sketch.</desc>
    <defs></defs>
    <g id="Page-1" stroke="none" stroke-width="1" fill="none" fill-rule="evenodd">
        <path d="M19.1660653,23.9982399 L26.000352,23.9982399 L26.000352,19.4703863 L19.1660653,19.4703863 L19.1660653,23.9982399 Z M2.00088005,23.9982399 L8.83270263,23.9982399 L8.83270263,19.4703863 L2.00088005,19.4703863 L2.00088005,23.9982399 Z M2.00088005,12.5683358 L8.83270263,12.5683358 L8.83270263,7.99859192 L2.00088005,7.99859192 L2.00088005,12.5683358 Z M19.1660653,12.5683358 L26.000352,12.5683358 L26.000352,7.99859192 L19.1660653,7.99859192 L19.1660653,12.5683358 Z M19.1660653,18.4699463 L26.000352,18.4699463 L26.000352,13.5687759 L19.1660653,13.5687759 L19.1660653,18.4699463 Z M9.83314266,12.5683358 L18.1680894,12.5683358 L18.1680894,7.99859192 L9.83314266,7.99859192 L9.83314266,12.5683358 Z M2.00088005,18.4699463 L8.83270263,18.4699463 L8.83270263,13.5687759 L2.00088005,13.5687759 L2.00088005,18.4699463 Z M9.83314266,23.9982399 L18.1680894,23.9982399 L18.1680894,19.4703863 L9.83314266,19.4703863 L9.83314266,23.9982399 Z M9.83191059,18.4699463 L18.1668573,18.4699463 L18.1668573,13.5687759 L9.83191059,13.5687759 L9.83191059,18.4699463 Z M0,25.9978879 L28,25.9978879 L28,0 L0,0 L0,25.9978879 Z" id="calendar" fill="#000000"></path>
    </g>
</svg>