<?xml version="1.0" encoding="UTF-8" standalone="no"?>
<svg width="28px" height="28px" viewBox="0 0 28 28" version="1.1" xmlns="http://www.w3.org/2000/svg" xmlns:xlink="http://www.w3.org/1999/xlink">
    <!-- Generator: Sketch 40.1 (33804) - http://www.bohemiancoding.com/sketch -->
    <title>instagram</title>
    <desc>Created with Sketch.</desc>
    <defs></defs>
    <g id="Page-1" stroke="none" stroke-width="1" fill="none" fill-rule="evenodd">
        <path d="M18.6662869,14 C18.6662869,16.5701033 16.5701033,18.6662869 14,18.6662869 C11.4298967,18.6662869 9.33371308,16.5701033 9.33371308,14 C9.33371308,11.4298967 11.4298967,9.33371308 14,9.33371308 C16.5701033,9.33371308 18.6662869,11.4298967 18.6662869,14 L18.6662869,14 Z M21.1817072,14 C21.1817072,10.026365 17.973635,6.81829278 14,6.81829278 C10.026365,6.81829278 6.81829278,10.026365 6.81829278,14 C6.81829278,17.973635 10.026365,21.1817072 14,21.1817072 C17.973635,21.1817072 21.1817072,17.973635 21.1817072,14 L21.1817072,14 Z M23.150297,6.52664985 C23.150297,5.597038 22.402962,4.84970299 21.4733502,4.84970299 C20.5437383,4.84970299 19.7964033,5.597038 19.7964033,6.52664985 C19.7964033,7.4562617 20.5437383,8.20359671 21.4733502,8.20359671 C22.402962,8.20359671 23.150297,7.4562617 23.150297,6.52664985 L23.150297,6.52664985 Z M14,2.51655952 C16.0415005,2.51655952 20.4161445,2.35251038 22.2571405,3.08161771 C22.8951094,3.33680527 23.3690292,3.64667589 23.8611767,4.13882334 C24.3533241,4.63097079 24.6631947,5.10489055 24.9183823,5.74285947 C25.6474896,7.58385548 25.4834405,11.9584995 25.4834405,14 C25.4834405,16.0415005 25.6474896,20.4161445 24.9183823,22.2571405 C24.6631947,22.8951094 24.3533241,23.3690292 23.8611767,23.8611767 C23.3690292,24.3533241 22.8951094,24.6631947 22.2571405,24.9183823 C20.4161445,25.6474896 16.0415005,25.4834405 14,25.4834405 C11.9584995,25.4834405 7.58385548,25.6474896 5.74285947,24.9183823 C5.10489055,24.6631947 4.63097079,24.3533241 4.13882334,23.8611767 C3.64667589,23.3690292 3.33680527,22.8951094 3.08161771,22.2571405 C2.35251038,20.4161445 2.51655952,16.0415005 2.51655952,14 C2.51655952,11.9584995 2.35251038,7.58385548 3.08161771,5.74285947 C3.33680527,5.10489055 3.64667589,4.63097079 4.13882334,4.13882334 C4.63097079,3.64667589 5.10489055,3.33680527 5.74285947,3.08161771 C7.58385548,2.35251038 11.9584995,2.51655952 14,2.51655952 L14,2.51655952 Z M27.9988608,14 C27.9988608,12.0678656 28.0170885,10.1539588 27.9077224,8.2218244 C27.7983563,5.97981935 27.2879811,3.99300187 25.6474896,2.35251038 C24.0069981,0.712018879 22.0201806,0.201643746 19.7781756,0.0922776467 C17.8460412,-0.0170884531 15.9321344,0.00113923021 14,0.00113923021 C12.0678656,0.00113923021 10.1539588,-0.0170884531 8.2218244,0.0922776467 C5.97981935,0.201643746 3.99300187,0.712018879 2.35251038,2.35251038 C0.712018879,3.99300187 0.201643746,5.97981935 0.0922776467,8.2218244 C-0.0170884531,10.1539588 0.00113923021,12.0678656 0.00113923021,14 C0.00113923021,15.9321344 -0.0170884531,17.8460412 0.0922776467,19.7781756 C0.201643746,22.0201806 0.712018879,24.0069981 2.35251038,25.6474896 C3.99300187,27.2879811 5.97981935,27.7983563 8.2218244,27.9077224 C10.1539588,28.0170885 12.0678656,27.9988608 14,27.9988608 C15.9321344,27.9988608 17.8460412,28.0170885 19.7781756,27.9077224 C22.0201806,27.7983563 24.0069981,27.2879811 25.6474896,25.6474896 C27.2879811,24.0069981 27.7983563,22.0201806 27.9077224,19.7781756 C28.0170885,17.8460412 27.9988608,15.9321344 27.9988608,14 L27.9988608,14 Z" id="instagram" fill="#000000"></path>
    </g>
</svg>