<?xml version="1.0" encoding="UTF-8" standalone="no"?>
<svg width="28px" height="25px" viewBox="0 0 28 25" version="1.1" xmlns="http://www.w3.org/2000/svg" xmlns:xlink="http://www.w3.org/1999/xlink">
    <!-- Generator: Sketch 40.1 (33804) - http://www.bohemiancoding.com/sketch -->
    <title>petcreds</title>
    <desc>Created with Sketch.</desc>
    <defs></defs>
    <g id="Page-1" stroke="none" stroke-width="1" fill="none" fill-rule="evenodd">
        <path d="M27.7316144,21.0869239 C27.3008915,20.5418122 26.5164108,20.4471944 25.9663564,20.875799 C24.328197,22.1679679 21.7650424,22.4412298 19.8797469,21.5261201 C18.9822898,21.0890422 17.909719,20.2078254 17.909719,18.4884641 L17.909719,17.6905675 C19.7667704,17.2782033 21.1224885,15.9909771 21.1224885,14.4650881 C21.1224885,12.6066246 19.1171555,11.1005064 16.6387333,11.1005064 C14.1567806,11.1005064 12.147917,12.6066246 12.147917,14.4650881 C12.147917,16.0008626 13.5219938,17.2958558 15.3988161,17.6983347 L15.3988161,18.4884641 C15.3988161,20.2078254 14.3283636,21.0890422 13.4294943,21.5261201 C11.5463171,22.4412298 8.98598691,22.1679679 7.34217868,20.875799 C6.79706702,20.4464883 6.00623145,20.5418122 5.57833291,21.0869239 C5.14972828,21.6327416 5.24364,22.422165 5.78945777,22.8507696 C7.23273269,23.9847714 9.10814276,24.5757797 10.9722552,24.5757797 C12.2058175,24.5757797 13.4337309,24.3166399 14.5274847,23.7856503 C15.3931673,23.3648128 16.1091559,22.798518 16.6528554,22.1227772 C17.2036158,22.798518 17.9167801,23.3648128 18.785287,23.7856503 C19.8797469,24.317346 21.1083665,24.5757797 22.3362799,24.5757797 C24.2010985,24.5757797 26.0793329,23.9847714 27.5190773,22.8507696 C28.0634829,22.422165 28.1616313,21.6327416 27.7316144,21.0869239 Z M24.7444449,8.63705364 C25.9448203,8.63705364 26.9121817,7.66616175 26.9121817,6.46931684 C26.9121817,5.27247193 25.9448203,4.30158005 24.7444449,4.30158005 C23.5518366,4.30158005 22.5774142,5.27247193 22.5774142,6.46931684 C22.5774142,7.66616175 23.5518366,8.63705364 24.7444449,8.63705364 Z M9.04367554,12.1241442 L9.12840792,12.1347358 C9.12840792,12.1347358 14.8443132,7.97084528 14.1085537,3.34445717 C13.7604449,1.15836169 11.6908564,-0.386592087 9.52806233,0.0850848447 C7.9937001,0.419071654 6.97267488,1.22261708 6.47769655,2.54656057 C5.38676712,1.6469851 4.1002471,1.46269217 2.60472055,1.94001793 C0.495590317,2.61293427 -0.52402269,4.98614709 0.267518987,7.05291113 C1.94380796,11.4286326 8.97588963,12.1749837 8.97588963,12.1749837 L9.04367554,12.1241442 Z M5.43831265,7.03314024 C5.12833335,5.87654321 5.81466565,4.68887765 6.97126268,4.37819224 C8.1278597,4.06821294 9.31623137,4.75454524 9.62621067,5.91114227 C9.93618997,7.06703319 9.24915157,8.25611096 8.09326065,8.56609026 C6.93666362,8.87536346 5.74829195,8.19044337 5.43831265,7.03314024 Z" id="petcreds" fill="#000000"></path>
    </g>
</svg>