<?xml version="1.0" encoding="UTF-8" standalone="no"?>
<svg width="28px" height="28px" viewBox="0 0 28 28" version="1.1" xmlns="http://www.w3.org/2000/svg" xmlns:xlink="http://www.w3.org/1999/xlink">
    <!-- Generator: Sketch 40.1 (33804) - http://www.bohemiancoding.com/sketch -->
    <title>search</title>
    <desc>Created with Sketch.</desc>
    <defs></defs>
    <g id="Page-1" stroke="none" stroke-width="1" fill="none" fill-rule="evenodd">
        <path d="M11.4612528,19.5629417 C9.21427716,19.5621032 7.20289855,18.6582824 5.7264343,17.189364 C4.25919272,15.7170919 3.35369505,13.7015211 3.35369505,11.4587376 C3.35369505,9.21511558 4.25919272,7.19954486 5.7264343,5.72727273 C7.20289855,4.25835429 9.21427716,3.35453348 11.4612528,3.35369505 C13.7006827,3.35453348 15.7204456,4.25835429 17.1876871,5.72727273 C18.6641514,7.19954486 19.5604264,9.21511558 19.5696491,11.4587376 C19.5604264,13.7015211 18.6641514,15.7170919 17.1876871,17.189364 C15.7204456,18.6582824 13.7006827,19.5621032 11.4612528,19.5629417 L11.4612528,19.5629417 Z M28,25.6222302 L20.6545694,18.2759612 C22.0706671,16.3693856 22.9199904,14.0159301 22.9233441,11.4587376 C22.9141215,5.12947658 17.7913523,0.000838423763 11.4612528,0 C5.13115343,0.000838423763 0,5.12947658 0,11.4587376 C0,17.7871601 5.13115343,22.9157983 11.4612528,22.9166367 C14.021799,22.9166367 16.3769314,22.066475 18.283507,20.647862 L25.635645,27.9924542 L28,25.6222302 Z" id="search" fill="#000000"></path>
    </g>
</svg>