<?xml version="1.0" encoding="UTF-8" standalone="no"?>
<svg width="26px" height="21px" viewBox="0 0 26 21" version="1.1" xmlns="http://www.w3.org/2000/svg" xmlns:xlink="http://www.w3.org/1999/xlink">
    <!-- Generator: Sketch 40.1 (33804) - http://www.bohemiancoding.com/sketch -->
    <title>suitcase</title>
    <desc>Created with Sketch.</desc>
    <defs></defs>
    <g id="Page-1" stroke="none" stroke-width="1" fill="none" fill-rule="evenodd">
        <path d="M9.35134683,3.5 L9.35134683,1.75 L16.3513468,1.75 L16.3513468,3.5 L9.35134683,3.5 Z M4.53884683,3.5 L3.66384683,3.5 C1.98220621,3.5 0.601346833,4.88085938 0.601346833,6.5625 L0.601346833,17.9375 C0.601346833,19.6191406 1.98220621,21 3.66384683,21 L4.53884683,21 L4.53884683,3.5 Z M19.8513468,3.5 L18.1013468,3.5 L18.1013468,1.3125 C18.1013468,0.587890625 17.5134562,0 16.7888468,0 L8.91384683,0 C8.18923746,0 7.60134683,0.587890625 7.60134683,1.3125 L7.60134683,3.5 L5.85134683,3.5 L5.85134683,21 L19.8513468,21 L19.8513468,3.5 Z M25.1013468,6.5625 C25.1013468,4.88085938 23.7204875,3.5 22.0388468,3.5 L21.1638468,3.5 L21.1638468,21 L22.0388468,21 C23.7204875,21 25.1013468,19.6191406 25.1013468,17.9375 L25.1013468,6.5625 Z" id="suitcase" fill="#000000"></path>
    </g>
</svg>