<?xml version="1.0" encoding="UTF-8" standalone="no"?>
<svg width="28px" height="29px" viewBox="0 0 28 29" version="1.1" xmlns="http://www.w3.org/2000/svg" xmlns:xlink="http://www.w3.org/1999/xlink">
    <!-- Generator: Sketch 40.1 (33804) - http://www.bohemiancoding.com/sketch -->
    <title>edit</title>
    <desc>Created with Sketch.</desc>
    <defs></defs>
    <g id="Page-1" stroke="none" stroke-width="1" fill="none" fill-rule="evenodd">
        <path d="M27.6168432,2.5941972 L25.414067,0.379400401 C24.9021895,-0.1264668 24.0817831,-0.1264668 23.5809244,0.379400401 L21.6676445,2.28867344 C21.446265,2.51506153 21.446265,2.87968661 21.6676445,3.10507298 L24.9021895,6.33561105 C25.1225673,6.56099742 25.4932026,6.56099742 25.7145821,6.33561105 L27.6168432,4.42733973 C28.1277189,3.91946909 28.1277189,3.10106611 27.6168432,2.5941972 Z M9.5966514,15.1836792 L12.8311963,18.4152189 C13.0515741,18.6386019 13.4222095,18.6386019 13.643589,18.2609545 L24.2117058,7.68682742 C24.4320836,7.61871065 24.4320836,7.25308386 24.2117058,7.02769748 L20.9751574,3.79515598 C20.7557813,3.57177304 20.385146,3.57177304 20.1647682,3.79515598 L9.5966514,14.3672796 C9.37527189,14.5936677 9.37527189,14.9562894 9.5966514,15.1836792 Z M8.37385518,15.9539997 L8.2937178,16.0782127 L8.264668,16.1633586 L6.69097023,20.7502218 L6.66091872,20.8353678 C6.63186892,20.9756082 6.67093589,21.1278692 6.77110761,21.2380581 C6.88229823,21.3472453 7.04157127,21.3863122 7.18281339,21.3542573 L7.26295077,21.3242058 L11.8508157,19.7535132 L11.9299513,19.7224599 L12.0611763,19.6363122 C12.2214511,19.4680238 12.2214511,19.1965584 12.0611763,19.0262665 L8.98490269,15.9539997 C8.81461076,15.7857112 8.54414711,15.7857112 8.37385518,15.9539997 Z M23.1697195,13.1351674 L23.1697195,25.1227175 L2.89496279,25.1227175 L2.89496279,4.8429522 L14.8845163,4.8429522 L14.9656554,4.83594018 L14.9656554,1.94698769 L0,1.94698769 L0,28.0206855 L26.0736978,28.0206855 L26.0736978,13.0520249 L23.1797367,13.0520249 L23.1697195,13.1351674 Z" id="edit" fill="#000000"></path>
    </g>
</svg>