<?xml version="1.0" encoding="UTF-8" standalone="no"?>
<svg width="28px" height="28px" viewBox="0 0 28 28" version="1.1" xmlns="http://www.w3.org/2000/svg" xmlns:xlink="http://www.w3.org/1999/xlink">
    <!-- Generator: Sketch 40.1 (33804) - http://www.bohemiancoding.com/sketch -->
    <title>gear</title>
    <desc>Created with Sketch.</desc>
    <defs></defs>
    <g id="Page-1" stroke="none" stroke-width="1" fill="none" fill-rule="evenodd">
        <path d="M14.6867089,22.3734177 C9.50205696,22.7810127 5.2278481,18.4946203 5.62547468,13.3188291 C5.94667722,9.24841772 9.24841772,5.94889241 13.3132911,5.62658228 C18.4957278,5.21787975 22.7832278,9.50537975 22.3723101,14.6822785 C22.0511076,18.7537975 18.7515823,22.0522152 14.6867089,22.3734177 M27.1028481,16.485443 C27.5791139,16.2528481 27.9003165,15.7931962 27.9446203,15.2693038 C27.9778481,14.8517405 28,14.4275316 28,14 C28,13.5713608 27.9778481,13.1482595 27.9446203,12.7306962 C27.9003165,12.2068038 27.5791139,11.7471519 27.1028481,11.514557 L24.3106013,10.144462 C24.2219937,9.90411392 24.1234177,9.6693038 24.0126582,9.43781646 L25.0205696,6.49272152 C25.1856013,5.99873418 25.0969937,5.44825949 24.7658228,5.04620253 C24.2219937,4.38939873 23.6139241,3.7835443 22.960443,3.2375 C22.5506329,2.90300633 22.0068038,2.80996835 21.5094937,2.97832278 L18.5632911,3.98401899 C18.3306962,3.87879747 18.0981013,3.78132911 17.8533228,3.69161392 L16.4920886,0.898259494 C16.2594937,0.426424051 15.7943038,0.104113924 15.2726266,0.0564873418 C14.8517405,0.0188291139 14.431962,0 14,0 C13.5791139,0 13.1460443,0.0188291139 12.7373418,0.0564873418 C12.2056962,0.104113924 11.7515823,0.426424051 11.5189873,0.898259494 L10.144462,3.69161392 C9.90189873,3.78132911 9.6693038,3.87879747 9.43670886,3.98401899 L6.49050633,2.97832278 C6.00316456,2.80996835 5.44936709,2.90300633 5.05063291,3.2375 C4.3971519,3.7835443 3.78797468,4.38939873 3.23417722,5.04620253 C2.90079114,5.4471519 2.81218354,5.99873418 2.97943038,6.49272152 L3.98734177,9.43781646 C3.87658228,9.6681962 3.78797468,9.90411392 3.68718354,10.1433544 L0.897151899,11.514557 C0.431962025,11.7471519 0.110759494,12.2068038 0.0553797468,12.7295886 C0.0221518987,13.1482595 0,13.5713608 0,14 C0,14.4275316 0.0221518987,14.8517405 0.0553797468,15.2693038 C0.110759494,15.7931962 0.431962025,16.2528481 0.897151899,16.4843354 L3.68718354,17.855538 C3.78797468,18.0947785 3.87658228,18.3306962 3.98734177,18.5621835 L2.97943038,21.5072785 C2.81218354,22.0012658 2.90079114,22.5528481 3.23417722,22.9537975 C3.78797468,23.6106013 4.3971519,24.2153481 5.05063291,24.7625 C5.44936709,25.0969937 6.00316456,25.1900316 6.49050633,25.0216772 L9.43670886,24.015981 C9.6693038,24.1212025 9.90189873,24.2186709 10.144462,24.3083861 L11.5189873,27.1017405 C11.7515823,27.5735759 12.2056962,27.8958861 12.7251582,27.9435127 C13.1460443,27.9811709 13.5791139,28 14,28 C14.431962,28 14.8517405,27.9811709 15.2726266,27.9435127 C15.7943038,27.8958861 16.2594937,27.5735759 16.4920886,27.1006329 L17.8533228,24.3083861 C18.0981013,24.2186709 18.3306962,24.1212025 18.5632911,24.015981 L21.5094937,25.0216772 C22.0068038,25.1900316 22.5506329,25.0969937 22.960443,24.7625 C23.6139241,24.2153481 24.2120253,23.6106013 24.7658228,22.9537975 C25.0969937,22.5528481 25.1856013,22.0012658 25.0205696,21.5072785 L24.0126582,18.5621835 C24.1234177,18.3306962 24.2219937,18.0958861 24.3106013,17.8566456 L27.1028481,16.485443" id="gear" fill="#000000"></path>
    </g>
</svg>