<?xml version="1.0" encoding="UTF-8" standalone="no"?>
<svg width="28px" height="27px" viewBox="0 0 28 27" version="1.1" xmlns="http://www.w3.org/2000/svg" xmlns:xlink="http://www.w3.org/1999/xlink">
    <!-- Generator: Sketch 40.1 (33804) - http://www.bohemiancoding.com/sketch -->
    <title>linkedin</title>
    <desc>Created with Sketch.</desc>
    <defs></defs>
    <g id="Page-1" stroke="none" stroke-width="1" fill="none" fill-rule="evenodd">
        <path d="M6.36197917,8.6953125 L0.346354167,8.6953125 L0.346354167,26.7604167 L6.36197917,26.7604167 L6.36197917,8.6953125 Z M6.74479167,3.1171875 C6.7265625,1.34895833 5.45052083,0 3.390625,0 C1.34895833,0 0,1.34895833 0,3.1171875 C0,4.84895833 1.29427083,6.234375 3.31770833,6.234375 L3.35416667,6.234375 C5.45052083,6.234375 6.76302083,4.84895833 6.74479167,3.1171875 L6.74479167,3.1171875 Z M28,16.40625 C28,10.8645833 25.046875,8.27604167 21.0911458,8.27604167 C17.8463542,8.27604167 16.4244792,10.0807292 15.640625,11.3203125 L15.6770833,11.3203125 L15.6770833,8.6953125 L9.6796875,8.6953125 C9.6796875,8.6953125 9.75260417,10.390625 9.6796875,26.7604167 L15.6770833,26.7604167 L15.6770833,16.6796875 C15.6770833,16.1328125 15.7317708,15.6041667 15.8776042,15.203125 C16.3151042,14.1276042 17.2994792,13.015625 18.9583333,13.015625 C21.1276042,13.015625 22.0026042,14.6744792 22.0026042,17.0989583 L22.0026042,26.7604167 L28,26.7604167 L28,16.40625 Z" id="linkedin" fill="#000000"></path>
    </g>
</svg>