<?xml version="1.0" encoding="UTF-8" standalone="no"?>
<svg width="28px" height="20px" viewBox="0 0 28 20" version="1.1" xmlns="http://www.w3.org/2000/svg" xmlns:xlink="http://www.w3.org/1999/xlink">
    <!-- Generator: Sketch 40.1 (33804) - http://www.bohemiancoding.com/sketch -->
    <title>messages</title>
    <desc>Created with Sketch.</desc>
    <defs></defs>
    <g id="Page-1" stroke="none" stroke-width="1" fill="none" fill-rule="evenodd">
        <path d="M25.0845193,0 L11.3594151,0 C9.74738834,0 8.4396782,1.3066461 8.4396782,2.91867283 L8.4396782,9.46573588 C8.4396782,11.0777626 9.74738834,12.3844087 11.3594151,12.3844087 L19.2461096,12.3844087 L22.1658465,15.3030815 L25.0845193,12.3844087 C26.696546,12.3844087 28,11.0777626 28,9.46573588 L28,2.91867283 C28,1.3066461 26.696546,0 25.0845193,0 Z M14.7444584,14.2778751 L11.3586702,14.2778751 C8.70068821,14.2778751 6.54706305,12.1231859 6.54706305,9.4662679 L6.54706305,5.55164984 C6.54706305,4.87810995 6.00120845,4.33119131 5.32766857,4.33119131 L2.91867283,4.33119131 C1.3066461,4.33119131 0,5.63890145 0,7.25092819 L0,13.7979912 C0,15.4078899 1.3066461,16.7166641 2.91867283,16.7166641 L5.83734567,19.6353369 L8.75495446,16.7166641 L14.7902123,16.7166641 L14.8338381,16.7156 C16.401175,16.6932551 16.3117953,14.2778751 14.7444584,14.2778751 Z" id="messages" fill="#000000"></path>
    </g>
</svg>