<?xml version="1.0" encoding="UTF-8" standalone="no"?>
<svg width="29px" height="26px" viewBox="0 0 29 26" version="1.1" xmlns="http://www.w3.org/2000/svg" xmlns:xlink="http://www.w3.org/1999/xlink">
    <!-- Generator: Sketch 40.1 (33804) - http://www.bohemiancoding.com/sketch -->
    <title>rating-paw</title>
    <desc>Created with Sketch.</desc>
    <defs></defs>
    <g id="Page-1" stroke="none" stroke-width="1" fill="none" fill-rule="evenodd">
        <path d="M23.7507344,20.0840726 C23.7507344,24.3225002 19.0595271,25.1225246 14.7666298,25.1225246 C10.4737325,25.1225246 5.85061239,24.3225002 5.85061239,20.0840726 C5.85061239,15.8456451 10.4737325,10.5178225 14.7666298,10.5178225 C19.0595271,10.5178225 23.7507344,15.8456451 23.7507344,20.0840726 Z M13.546167,3.14738431 C14.0159686,5.25808718 12.9861498,7.26665926 11.24482,7.6581606 C9.50178791,8.04966194 7.70939266,6.67089636 7.23959105,4.57721529 C6.76978944,2.46651242 7.79960818,0.457940337 9.54093805,0.0664389983 C11.2822679,-0.32506234 13.0763653,1.05370324 13.546167,3.14738431 Z M7.22086707,9.5475801 C7.69237086,11.6412612 6.66084994,13.6668551 4.91952008,14.0583564 C3.17819021,14.4328359 1.38409277,13.0540703 0.914291167,10.9603893 C0.444489561,8.86670821 1.4743083,6.85813613 3.21563816,6.46663479 C4.95867021,6.07513345 6.75106547,7.45389903 7.22086707,9.5475801 Z M16.0551799,3.14738431 C15.5853783,5.25808718 16.615197,7.26665926 18.3565269,7.6581606 C20.0995589,8.04966194 21.8919542,6.67089636 22.3617558,4.57721529 C22.8332596,2.46651242 21.8017387,0.457940337 20.0604088,0.0664389983 C18.3190789,-0.32506234 16.5249815,1.05370324 16.0551799,3.14738431 Z M22.3804798,9.5475801 C21.9106782,11.6412612 22.9404969,13.6668551 24.6818268,14.0583564 C26.4248588,14.4328359 28.2172541,13.0540703 28.6870557,10.9603893 C29.1568573,8.86670821 28.1270385,6.85813613 26.3857087,6.46663479 C24.6443788,6.07513345 22.8502814,7.45389903 22.3804798,9.5475801 Z" id="rating-paw" fill="#000000"></path>
    </g>
</svg>