<?xml version="1.0" encoding="UTF-8" standalone="no"?>
<svg width="164px" height="26px" viewBox="0 0 164 26" version="1.1" xmlns="http://www.w3.org/2000/svg" xmlns:xlink="http://www.w3.org/1999/xlink">
    <!-- Generator: Sketch 40.1 (33804) - http://www.bohemiancoding.com/sketch -->
    <title>vet-rating</title>
    <desc>Created with Sketch.</desc>
    <defs></defs>
    <g id="Page-1" stroke="none" stroke-width="1" fill="none" fill-rule="evenodd">
        <g id="vet-rating" fill="currentColor">
            <path d="M22.950061,20.0840726 C22.950061,24.3225002 18.2588537,25.1225246 13.9659564,25.1225246 C9.67305912,25.1225246 5.04993897,24.3225002 5.04993897,20.0840726 C5.04993897,15.8456451 9.67305912,10.5178225 13.9659564,10.5178225 C18.2588537,10.5178225 22.950061,15.8456451 22.950061,20.0840726 Z M12.7454935,3.14738431 C13.2152951,5.25808718 12.1854764,7.26665926 10.4441465,7.6581606 C8.7011145,8.04966194 6.90871924,6.67089636 6.43891763,4.57721529 C5.96911603,2.46651242 6.99893476,0.457940337 8.74026463,0.0664389983 C10.4815945,-0.32506234 12.2756919,1.05370324 12.7454935,3.14738431 Z M6.42019366,9.5475801 C6.89169744,11.6412612 5.86017652,13.6668551 4.11884666,14.0583564 C2.37751679,14.4328359 0.583419356,13.0540703 0.11361775,10.9603893 C-0.356183856,8.86670821 0.673634882,6.85813613 2.41496475,6.46663479 C4.15799679,6.07513345 5.95039205,7.45389903 6.42019366,9.5475801 Z M15.2545065,3.14738431 C14.7847049,5.25808718 15.8145236,7.26665926 17.5558535,7.6581606 C19.2988855,8.04966194 21.0912808,6.67089636 21.5610824,4.57721529 C22.0325862,2.46651242 21.0010652,0.457940337 19.2597354,0.0664389983 C17.5184055,-0.32506234 15.7243081,1.05370324 15.2545065,3.14738431 Z M21.5798063,9.5475801 C21.1100047,11.6412612 22.1398235,13.6668551 23.8811533,14.0583564 C25.6241854,14.4328359 27.4165806,13.0540703 27.8863822,10.9603893 C28.3561839,8.86670821 27.3263651,6.85813613 25.5850353,6.46663479 C23.8437054,6.07513345 22.049608,7.45389903 21.5798063,9.5475801 Z" id="Combined-Shape"></path>
            <path d="M90.950061,20.0840726 C90.950061,24.3225002 86.2588537,25.1225246 81.9659564,25.1225246 C77.6730591,25.1225246 73.049939,24.3225002 73.049939,20.0840726 C73.049939,15.8456451 77.6730591,10.5178225 81.9659564,10.5178225 C86.2588537,10.5178225 90.950061,15.8456451 90.950061,20.0840726 Z M80.7454935,3.14738431 C81.2152951,5.25808718 80.1854764,7.26665926 78.4441465,7.6581606 C76.7011145,8.04966194 74.9087192,6.67089636 74.4389176,4.57721529 C73.969116,2.46651242 74.9989348,0.457940337 76.7402646,0.0664389983 C78.4815945,-0.32506234 80.2756919,1.05370324 80.7454935,3.14738431 Z M74.4201937,9.5475801 C74.8916974,11.6412612 73.8601765,13.6668551 72.1188467,14.0583564 C70.3775168,14.4328359 68.5834194,13.0540703 68.1136178,10.9603893 C67.6438161,8.86670821 68.6736349,6.85813613 70.4149647,6.46663479 C72.1579968,6.07513345 73.950392,7.45389903 74.4201937,9.5475801 Z M83.2545065,3.14738431 C82.7847049,5.25808718 83.8145236,7.26665926 85.5558535,7.6581606 C87.2988855,8.04966194 89.0912808,6.67089636 89.5610824,4.57721529 C90.0325862,2.46651242 89.0010652,0.457940337 87.2597354,0.0664389983 C85.5184055,-0.32506234 83.7243081,1.05370324 83.2545065,3.14738431 Z M89.5798063,9.5475801 C89.1100047,11.6412612 90.1398235,13.6668551 91.8811533,14.0583564 C93.6241854,14.4328359 95.4165806,13.0540703 95.8863822,10.9603893 C96.3561839,8.86670821 95.3263651,6.85813613 93.5850353,6.46663479 C91.8437054,6.07513345 90.049608,7.45389903 89.5798063,9.5475801 Z" id="Combined-Shape-Copy-2"></path>
            <path d="M56.950061,20.0840726 C56.950061,24.3225002 52.2588537,25.1225246 47.9659564,25.1225246 C43.6730591,25.1225246 39.049939,24.3225002 39.049939,20.0840726 C39.049939,15.8456451 43.6730591,10.5178225 47.9659564,10.5178225 C52.2588537,10.5178225 56.950061,15.8456451 56.950061,20.0840726 Z M46.7454935,3.14738431 C47.2152951,5.25808718 46.1854764,7.26665926 44.4441465,7.6581606 C42.7011145,8.04966194 40.9087192,6.67089636 40.4389176,4.57721529 C39.969116,2.46651242 40.9989348,0.457940337 42.7402646,0.0664389983 C44.4815945,-0.32506234 46.2756919,1.05370324 46.7454935,3.14738431 Z M40.4201937,9.5475801 C40.8916974,11.6412612 39.8601765,13.6668551 38.1188467,14.0583564 C36.3775168,14.4328359 34.5834194,13.0540703 34.1136178,10.9603893 C33.6438161,8.86670821 34.6736349,6.85813613 36.4149647,6.46663479 C38.1579968,6.07513345 39.950392,7.45389903 40.4201937,9.5475801 Z M49.2545065,3.14738431 C48.7847049,5.25808718 49.8145236,7.26665926 51.5558535,7.6581606 C53.2988855,8.04966194 55.0912808,6.67089636 55.5610824,4.57721529 C56.0325862,2.46651242 55.0010652,0.457940337 53.2597354,0.0664389983 C51.5184055,-0.32506234 49.7243081,1.05370324 49.2545065,3.14738431 Z M55.5798063,9.5475801 C55.1100047,11.6412612 56.1398235,13.6668551 57.8811533,14.0583564 C59.6241854,14.4328359 61.4165806,13.0540703 61.8863822,10.9603893 C62.3561839,8.86670821 61.3263651,6.85813613 59.5850353,6.46663479 C57.8437054,6.07513345 56.049608,7.45389903 55.5798063,9.5475801 Z" id="Combined-Shape-Copy"></path>
            <path d="M124.950061,20.0840726 C124.950061,24.3225002 120.258854,25.1225246 115.965956,25.1225246 C111.673059,25.1225246 107.049939,24.3225002 107.049939,20.0840726 C107.049939,15.8456451 111.673059,10.5178225 115.965956,10.5178225 C120.258854,10.5178225 124.950061,15.8456451 124.950061,20.0840726 Z M114.745494,3.14738431 C115.215295,5.25808718 114.185476,7.26665926 112.444147,7.6581606 C110.701114,8.04966194 108.908719,6.67089636 108.438918,4.57721529 C107.969116,2.46651242 108.998935,0.457940337 110.740265,0.0664389983 C112.481594,-0.32506234 114.275692,1.05370324 114.745494,3.14738431 Z M108.420194,9.5475801 C108.891697,11.6412612 107.860177,13.6668551 106.118847,14.0583564 C104.377517,14.4328359 102.583419,13.0540703 102.113618,10.9603893 C101.643816,8.86670821 102.673635,6.85813613 104.414965,6.46663479 C106.157997,6.07513345 107.950392,7.45389903 108.420194,9.5475801 Z M117.254506,3.14738431 C116.784705,5.25808718 117.814524,7.26665926 119.555853,7.6581606 C121.298886,8.04966194 123.091281,6.67089636 123.561082,4.57721529 C124.032586,2.46651242 123.001065,0.457940337 121.259735,0.0664389983 C119.518406,-0.32506234 117.724308,1.05370324 117.254506,3.14738431 Z M123.579806,9.5475801 C123.110005,11.6412612 124.139823,13.6668551 125.881153,14.0583564 C127.624185,14.4328359 129.416581,13.0540703 129.886382,10.9603893 C130.356184,8.86670821 129.326365,6.85813613 127.585035,6.46663479 C125.843705,6.07513345 124.049608,7.45389903 123.579806,9.5475801 Z" id="Combined-Shape-Copy-3"></path>
            <path d="M158.950061,20.0840726 C158.950061,24.3225002 154.258854,25.1225246 149.965956,25.1225246 C145.673059,25.1225246 141.049939,24.3225002 141.049939,20.0840726 C141.049939,15.8456451 145.673059,10.5178225 149.965956,10.5178225 C154.258854,10.5178225 158.950061,15.8456451 158.950061,20.0840726 Z M148.745494,3.14738431 C149.215295,5.25808718 148.185476,7.26665926 146.444147,7.6581606 C144.701114,8.04966194 142.908719,6.67089636 142.438918,4.57721529 C141.969116,2.46651242 142.998935,0.457940337 144.740265,0.0664389983 C146.481594,-0.32506234 148.275692,1.05370324 148.745494,3.14738431 Z M142.420194,9.5475801 C142.891697,11.6412612 141.860177,13.6668551 140.118847,14.0583564 C138.377517,14.4328359 136.583419,13.0540703 136.113618,10.9603893 C135.643816,8.86670821 136.673635,6.85813613 138.414965,6.46663479 C140.157997,6.07513345 141.950392,7.45389903 142.420194,9.5475801 Z M151.254506,3.14738431 C150.784705,5.25808718 151.814524,7.26665926 153.555853,7.6581606 C155.298886,8.04966194 157.091281,6.67089636 157.561082,4.57721529 C158.032586,2.46651242 157.001065,0.457940337 155.259735,0.0664389983 C153.518406,-0.32506234 151.724308,1.05370324 151.254506,3.14738431 Z M157.579806,9.5475801 C157.110005,11.6412612 158.139823,13.6668551 159.881153,14.0583564 C161.624185,14.4328359 163.416581,13.0540703 163.886382,10.9603893 C164.356184,8.86670821 163.326365,6.85813613 161.585035,6.46663479 C159.843705,6.07513345 158.049608,7.45389903 157.579806,9.5475801 Z" id="Combined-Shape-Copy-4"></path>
        </g>
    </g>
</svg>