<?xml version="1.0" encoding="UTF-8" standalone="no"?>
<svg width="29px" height="28px" viewBox="0 0 29 28" version="1.1" xmlns="http://www.w3.org/2000/svg" xmlns:xlink="http://www.w3.org/1999/xlink">
    <!-- Generator: Sketch 40.1 (33804) - http://www.bohemiancoding.com/sketch -->
    <title>share</title>
    <desc>Created with Sketch.</desc>
    <defs></defs>
    <g id="Page-1" stroke="none" stroke-width="1" fill="none" fill-rule="evenodd">
        <path d="M20.6646996,3.11087207 L7.98456134,15.7963888 C7.74360859,16.0384172 7.74360859,16.4288897 7.98456134,16.6730695 L11.4547112,20.1432194 C11.6967396,20.3830964 12.0882878,20.3830964 12.3270892,19.9775643 L24.9265514,7.3716481 L26.9757254,9.42189781 C27.4027711,9.84786784 28.1320834,9.54560123 28.1320834,8.94214368 L28.1320834,1.26285056 C28.1320834,0.565808682 27.5662747,0 26.8692329,0 L19.1888641,0 C18.5864822,0 18.2842156,0.729312332 18.7101856,1.15635805 L20.6646996,3.11087207 Z M25.027773,13.9548214 C25.0266973,13.9849405 25.0202432,14.0139839 25.0202432,14.044103 L25.0202432,24.8869766 L3.24413875,24.8869766 L3.24413875,3.10979639 L14.088088,3.10979639 C14.1182071,3.10979639 14.1472505,3.10441798 14.176294,3.10226662 L14.176294,0 L0.132190998,0 L0.132190998,27.9989243 L23.8122525,27.9989243 L26.5756793,27.9989243 L28.132191,27.9989243 L28.132191,26.4434883 L28.132191,24.1501345 L28.132191,13.9548214 L25.027773,13.9548214 Z" id="share" fill="#000000"></path>
    </g>
</svg>