<?xml version="1.0" encoding="UTF-8" standalone="no"?>
<svg width="28px" height="23px" viewBox="0 0 28 23" version="1.1" xmlns="http://www.w3.org/2000/svg" xmlns:xlink="http://www.w3.org/1999/xlink">
    <!-- Generator: Sketch 40.1 (33804) - http://www.bohemiancoding.com/sketch -->
    <title>twitter</title>
    <desc>Created with Sketch.</desc>
    <defs></defs>
    <g id="Page-1" stroke="none" stroke-width="1" fill="none" fill-rule="evenodd">
        <path d="M27.2395395,2.62716371 C26.2370692,3.05926301 25.1481789,3.3703745 24.0247208,3.4913623 C25.1827469,2.80000343 26.0642294,1.71111321 26.4790448,0.414815323 C25.4074385,1.05432228 24.1975605,1.52098952 22.9358306,1.76296512 C21.9160762,0.674074899 20.4642226,0 18.8568132,0 C15.7629823,0 13.2740903,2.50617591 13.2740903,5.58272289 C13.2740903,6.01482218 13.3259422,6.44692147 13.4123621,6.8617368 C8.78025766,6.61976119 4.64938841,4.4074128 1.9012369,1.01975434 C1.41728569,1.84938498 1.14074214,2.80000343 1.14074214,3.83704174 C1.14074214,5.77284657 2.12592853,7.48395978 3.62963407,8.48643014 C2.71358357,8.4518622 1.84938498,8.19260262 1.10617419,7.7777873 L1.10617419,7.84692319 C1.10617419,10.5605068 3.02469506,12.8074231 5.58272289,13.3259422 C5.11605565,13.44693 4.61482047,13.5160659 4.11358528,13.5160659 C3.75062188,13.5160659 3.40494244,13.481498 3.05926301,13.4296461 C3.76790585,15.6419945 5.82469849,17.2494038 8.27902248,17.3012558 C6.36050162,18.8049613 3.95802954,19.6864439 1.3481498,19.6864439 C0.881482561,19.6864439 0.449383266,19.6691599 0,19.617308 C2.47160796,21.2074334 5.40988317,22.1234839 8.57285,22.1234839 C18.8395292,22.1234839 24.4568201,13.6197698 24.4568201,6.23951381 C24.4568201,5.99753821 24.4568201,5.7555626 24.4395361,5.513587 C25.5284263,4.7185243 26.4790448,3.7333379 27.2395395,2.62716371 L27.2395395,2.62716371 Z" id="twitter" fill="#000000"></path>
    </g>
</svg>