<?xml version="1.0" encoding="UTF-8" standalone="no"?>
<svg width="28px" height="28px" viewBox="0 0 28 28" version="1.1" xmlns="http://www.w3.org/2000/svg" xmlns:xlink="http://www.w3.org/1999/xlink">
    <!-- Generator: Sketch 40.1 (33804) - http://www.bohemiancoding.com/sketch -->
    <title>user-circled</title>
    <desc>Created with Sketch.</desc>
    <defs></defs>
    <g id="Page-1" stroke="none" stroke-width="1" fill="none" fill-rule="evenodd">
        <path d="M23.7036464,21.6573508 C23.3914996,20.8856546 22.7314392,20.3610746 21.3332817,20.0380893 C18.4751877,19.378029 15.8143532,18.8003406 17.1030425,16.3714485 C21.0243865,8.97422002 18.1424479,5.01819308 14,5.01819308 C9.77409615,5.01819308 6.96260742,9.12595804 10.8969575,16.3714485 C12.2224975,18.8155144 9.46086553,19.3921189 6.66346675,20.0380893 C5.26639313,20.3610746 4.60741658,20.8856546 4.29635364,21.6573508 C2.63048696,19.5514438 1.62901603,16.8938608 1.62901603,14 C1.62901603,7.16745374 7.16745374,1.62901603 14,1.62901603 C20.8325463,1.62901603 26.3699001,7.16745374 26.3699001,14 C26.3699001,16.8938608 25.3684292,19.55036 23.7036464,21.6573508 L23.7036464,21.6573508 Z M14,0 C6.27978633,0 0,6.27978633 0,14 C0,21.7202137 6.27978633,28 14,28 C21.7191298,28 28,21.7202137 28,14 C28,6.27978633 21.7191298,0 14,0 L14,0 Z" id="user-circled" fill="#000000"></path>
    </g>
</svg>